<svg height="512pt" viewBox="0 -18 512 511" width="512pt" xmlns="http://www.w3.org/2000/svg"><path d="m418 394.5c-22.054688 0-40 17.945312-40 40s17.945312 40 40 40 40-17.945312 40-40-17.945312-40-40-40zm0 65c-13.785156 0-25-11.214844-25-25s11.214844-25 25-25 25 11.214844 25 25-11.214844 25-25 25zm0 0"/><path d="m512 92.5c0-22.214844-8.027344-43.667969-22.605469-60.402344-2.71875-3.125-7.457031-3.449218-10.578125-.726562-3.125 2.71875-3.453125 7.457031-.730468 10.578125 12.195312 14.003906 18.914062 31.957031 18.914062 50.550781 0 42.457031-34.542969 77-77 77s-77-34.542969-77-77 34.542969-77 77-77c11.394531 0 22.363281 2.429688 32.597656 7.21875 3.75 1.757812 8.214844.136719 9.972656-3.613281 1.753907-3.753907.136719-8.21875-3.613281-9.972657-12.242187-5.730468-25.347656-8.632812-38.957031-8.632812-33.46875 0-62.820312 17.96875-78.917969 44.765625-12.101562-17.988281-32.496093-29.109375-54.6875-29.109375-17.890625 0-34.632812 7.050781-47.136719 19.859375-1.386718 1.414063-3.25 2.195313-5.257812 2.195313s-3.875-.78125-5.257812-2.199219c-12.507813-12.804688-29.246094-19.855469-47.136719-19.855469-34.136719 0-62.292969 26.085938-65.578125 59.367188-6.53125-1.4375-13.246094-1.855469-20.054688-1.25-31.925781 2.839843-57.632812 29.097656-59.796875 61.074218-.40625 6.015625-.003906 12.019532 1.191407 17.855469.628906 3.0625-.929688 6.246094-3.875 7.910156-20.660157 11.691407-33.492188 33.675781-33.492188 57.386719s12.835938 45.695312 33.492188 57.382812c2.949218 1.667969 4.503906 4.847657 3.875 7.914063-1.195313 5.835937-1.597657 11.84375-1.1875 17.859375 2.164062 31.980469 27.875 58.234375 59.796874 61.070312 6.8125.609376 13.523438.183594 20.050782-1.253906 3.289062 33.285156 31.445312 59.371094 65.578125 59.371094 17.890625 0 34.632812-7.050781 47.136719-19.859375 1.386718-1.414063 3.25-2.195313 5.257812-2.195313s3.875.78125 5.257812 2.199219c12.507813 12.804688 29.246094 19.855469 47.136719 19.855469 34.136719 0 62.292969-26.082031 65.578125-59.367188 6.53125 1.4375 13.242188 1.851563 20.054688 1.25 31.921875-2.839843 57.628906-29.09375 59.796875-61.070312.40625-6.015625.007812-12.023438-1.191407-17.859375-.628906-3.066406.929688-6.246094 3.875-7.914063 20.65625-11.6875 33.492188-33.671874 33.492188-57.382812 0-14.769531-5.007812-29.027344-13.96875-40.527344 33.929688-13.558594 57.96875-46.757812 57.96875-85.472656zm-59 126c0 18.3125-9.914062 35.296875-25.878906 44.324219-8.632813 4.886719-13.128906 14.523437-11.183594 23.988281.925781 4.511719 1.234375 9.164062.917969 13.832031-1.671875 24.683594-21.515625 44.949219-46.160157 47.140625-8.015624.710938-15.84375-.40625-23.265624-3.335937-2.382813-.9375-5.078126-.597657-7.152344.90625-2.074219 1.503906-3.238282 3.960937-3.085938 6.519531.070313 1.140625.101563 2.144531.101563 3.070312 0 28.066407-22.832031 50.898438-50.898438 50.898438-13.816406 0-26.746093-5.445312-36.402343-15.335938-4.230469-4.332031-9.910157-6.71875-15.992188-6.71875s-11.757812 2.386719-15.988281 6.71875c-9.660157 9.890626-22.589844 15.335938-36.40625 15.335938-28.066407 0-50.898438-22.832031-50.898438-50.898438 0-.910156.03125-1.917968.101563-3.074218.152344-2.558594-1.011719-5.015625-3.085938-6.515625-2.070312-1.503907-4.769531-1.84375-7.152344-.90625-7.421874 2.925781-15.25 4.054687-23.265624 3.335937-24.644532-2.1875-44.488282-22.457031-46.160157-47.140625-.316406-4.667969-.007812-9.320312.917969-13.832031 1.945312-9.464844-2.550781-19.101562-11.183594-23.988281-15.964844-9.027344-25.878906-26.011719-25.878906-44.324219s9.914062-35.300781 25.878906-44.328125c8.632813-4.882813 13.125-14.523437 11.183594-23.988281-.925781-4.507813-1.238281-9.15625-.921875-13.824219 1.671875-24.683594 21.515625-44.953125 46.160156-47.144531 8.011719-.710938 15.84375.410156 23.269531 3.335937 2.382813.941407 5.082032.597657 7.152344-.90625 2.074219-1.503906 3.238282-3.960937 3.085938-6.515625-.070313-1.152344-.105469-2.160156-.105469-3.074218 0-28.066407 22.835937-50.898438 50.898437-50.898438 13.820313 0 26.75 5.445312 36.40625 15.335938 4.230469 4.335937 9.910157 6.722656 15.992188 6.722656 6.078125 0 11.757812-2.386719 15.988281-6.71875 9.660157-9.894532 22.585938-15.339844 36.40625-15.339844 20.265625 0 38.59375 12.007812 46.6875 30.597656.035157.082032.082031.160156.121094.242188-3.363281 9.550781-5.203125 19.816406-5.203125 30.503906 0 50.730469 41.269531 92 92 92 6.246094 0 12.347656-.628906 18.246094-1.820312 9.40625 9.5 14.753906 22.390624 14.753906 35.820312zm0 0"/><path d="m187.839844 231.6875c3.878906-2.816406 5.785156-7.503906 4.972656-12.226562l-2.546875-14.867188 10.796875-10.527344c3.433594-3.34375 4.648438-8.253906 3.164062-12.8125-1.480468-4.558594-5.347656-7.816406-10.089843-8.507812l-14.925781-2.167969-6.675782-13.523437c-2.121094-4.300782-6.414062-6.96875-11.207031-6.96875s-9.089844 2.667968-11.210937 6.96875l-6.671876 13.523437-14.925781 2.167969c-4.742187.6875-8.609375 3.949218-10.089843 8.507812-1.484376 4.558594-.269532 9.46875 3.164062 12.8125l10.796875 10.527344-2.546875 14.867188c-.8125 4.722656 1.09375 9.40625 4.972656 12.226562 3.875 2.816406 8.921875 3.179688 13.164063.949219l13.347656-7.019531 13.351563 7.019531c1.847656.972656 3.84375 1.449219 5.832031 1.449219 2.574219 0 5.136719-.808594 7.328125-2.398438zm-12.582032-25.851562 1.917969 11.167968-10.03125-5.273437c-1.820312-.957031-3.820312-1.433594-5.816406-1.433594s-3.996094.476563-5.816406 1.433594l-10.03125 5.273437 1.917969-11.167968c.695312-4.054688-.648438-8.191407-3.597657-11.066407l-8.113281-7.90625 11.214844-1.628906c4.070312-.59375 7.589844-3.148437 9.410156-6.839844l5.015625-10.160156 5.015625 10.160156c1.816406 3.6875 5.335938 6.246094 9.410156 6.839844l11.214844 1.628906-8.117188 7.910157c-2.945312 2.871093-4.289062 7.007812-3.59375 11.0625zm0 0"/><path d="m344.480469 251.832031-14.925781-2.171875-6.671876-13.523437c-2.121093-4.296875-6.417968-6.96875-11.210937-6.96875s-9.085937 2.671875-11.207031 6.96875l-6.675782 13.523437-14.929687 2.171875c-4.742187.6875-8.609375 3.949219-10.089844 8.507813s-.269531 9.46875 3.164063 12.8125l10.800781 10.527344-2.550781 14.867187c-.8125 4.722656 1.09375 9.40625 4.972656 12.222656 3.875 2.820313 8.917969 3.183594 13.164062.953125l13.351563-7.019531 13.351563 7.019531c1.84375.972656 3.839843 1.449219 5.828124 1.449219 2.578126 0 5.144532-.808594 7.335938-2.398437 3.875-2.820313 5.78125-7.503907 4.972656-12.226563l-2.550781-14.867187 10.800781-10.527344c3.433594-3.347656 4.644532-8.253906 3.164063-12.8125s-5.347657-7.820313-10.09375-8.507813zm-15.285157 22.027344c-2.945312 2.871094-4.289062 7.007813-3.589843 11.0625l1.914062 11.167969-10.03125-5.273438c-1.820312-.957031-3.816406-1.4375-5.816406-1.4375-1.996094 0-3.996094.480469-5.816406 1.4375l-10.027344 5.273438 1.914063-11.167969c.695312-4.054687-.648438-8.191406-3.59375-11.066406l-8.117188-7.910157 11.214844-1.628906c4.070312-.589844 7.589844-3.144531 9.414062-6.835937l5.015625-10.160157 5.015625 10.160157c1.820313 3.691406 5.339844 6.246093 9.410156 6.835937l11.210938 1.628906zm0 0"/><path d="m278.125 187.933594 4.074219-7.445313 7.449219-4.074219c2.402343-1.316406 3.898437-3.839843 3.898437-6.578124 0-2.742188-1.496094-5.265626-3.898437-6.582032l-7.449219-4.074218-4.074219-7.445313c-1.3125-2.40625-3.839844-3.902344-6.578125-3.902344-2.742187 0-5.265625 1.496094-6.582031 3.902344l-4.070313 7.445313-7.449219 4.074218c-2.40625 1.316406-3.902343 3.839844-3.902343 6.582032 0 2.738281 1.496093 5.261718 3.902343 6.578124l7.449219 4.074219 4.074219 7.445313c1.3125 2.40625 3.835938 3.902344 6.578125 3.902344 2.738281 0 5.265625-1.496094 6.578125-3.902344zm0 0"/><path d="m216.894531 283.585938-7.449219-4.070313-4.070312-7.449219c-1.316406-2.40625-3.839844-3.902344-6.582031-3.902344-2.742188 0-5.265625 1.496094-6.578125 3.902344l-4.074219 7.449219-7.449219 4.070313c-2.402344 1.316406-3.898437 3.839843-3.898437 6.582031 0 2.738281 1.496093 5.265625 3.898437 6.578125l7.449219 4.074218 4.074219 7.449219c1.316406 2.402344 3.839844 3.898438 6.582031 3.898438 2.738281 0 5.261719-1.496094 6.578125-3.898438l4.074219-7.449219 7.449219-4.074218c2.402343-1.3125 3.898437-3.839844 3.898437-6.578125 0-2.742188-1.496094-5.265625-3.902344-6.582031zm0 0"/><path d="m395 79.5c0-4.144531-3.355469-7.5-7.5-7.5s-7.5 3.355469-7.5 7.5v13c0 4.144531 3.355469 7.5 7.5 7.5s7.5-3.355469 7.5-7.5zm0 0"/><path d="m460 92.5v-13c0-4.144531-3.355469-7.5-7.5-7.5s-7.5 3.355469-7.5 7.5v13c0 4.144531 3.355469 7.5 7.5 7.5s7.5-3.355469 7.5-7.5zm0 0"/><path d="m420 138.832031c12.414062 0 23.53125-8.3125 27.027344-20.21875 1.167968-3.972656-1.105469-8.140625-5.082032-9.308593-3.980468-1.167969-8.140624 1.105468-9.308593 5.082031-1.636719 5.5625-6.832031 9.445312-12.636719 9.445312-5.808594 0-11.003906-3.886719-12.636719-9.445312-1.167969-3.976563-5.335937-6.253907-9.308593-5.082031-3.976563 1.164062-6.25 5.332031-5.085938 9.308593 3.5 11.90625 14.613281 20.21875 27.03125 20.21875zm0 0"/></svg>