<svg xmlns="http://www.w3.org/2000/svg" width="625.58" height="273.89" viewBox="0 0 625.58 273.89"><title>Ресурс 1</title><path d="M234.82,85.88c-7.3-12.09-20.76-18.6-28.59-30.37A7.17,7.17,0,0,1,205,52a6.53,6.53,0,0,1,.35-6.13c2.94-5.26,3.1-13.28.55-20.74-2.09-5.83-3.57-7.51-9.09-10.6-5.13-2.87-7.6-3.38-11.49-2.28-2.66.75-5,1-5.21.37-.52-1.84-7.76,3.08-14.2,9.66a50.55,50.55,0,0,0-10.51,16l-4.21,9.38-4.08-2.28a22.86,22.86,0,0,1-6.79-6.38C138.22,36,134,33.34,122,27.12c-13.31-6.75-17-7.93-24-8.25-10.3-.41-11.69.54-2,1.46,8.47.59,14.59,3.84,22.06,11.46,3.79,4,5.35,6.79,4.85,8.92-.61,2.94,0,3.64,6.58,6.44,4.76,2,8.09,4.35,10.06,7,2.78,4,2.71,4.1-4-.52-5.17-3.41-6-3.72-3.58-1.31,1.87,1.91,4.44,4.72,5.78,6.33,2.36,2.87,2.29,3-5.76,3.51-4.59.19-13.52.73-19.94,1.11s-16.56.93-22.5,1.06c-20.32.55-24.33,1.24-31.73,5.22-7.12,3.79-21.83,7-24.59,5.41a8.83,8.83,0,0,1-2.63-3c-.8-1.65-.17-2.17,3.15-2.55,2.71-.21,3.54-.78,2.29-1.31-1.05-.59-5.78-.47-10.46.19s-9.69,1-11.09.7c-1.61-.21-3.17.12-3.54.78s-1.43.41-2.4-.65C6.14,66.44.54,66.59,0,69.4c0,.09,0,.15,0,.24a188.52,188.52,0,0,1,43.54,12,7.65,7.65,0,0,1,2.4,1.64,83.78,83.78,0,0,0,9.1-.86c7.46-1,14-.3,27.25,2.8,9.61,2.26,18.24,5,19.08,6a2.11,2.11,0,0,0,3,.48c1.61-1.34,7.42,0,15.35,3.4,2.12.84,4.93,1.37,6.16,1,2.87-.81-8-6.91-15.18-8.65-6.27-1.43-2.34-2,6.31-.79,4,.52,9.05,1.09,11.33,1.33a38.18,38.18,0,0,1,8.9,2.9c2.5,1.4,7.51,2.3,11,2.19l.66,0a62.56,62.56,0,0,1,13.47-.34,1.44,1.44,0,0,1,1.1.15,29,29,0,0,1,4,.86c.4-2.09,1.89-1.93,6,1,1.37.94,2.19.71,2.24-.3s.55-1.59,1.33-1.15,1.19,1.88,1.06,3.35a2.16,2.16,0,0,0,1.63,2.64c1.16.18,1.1,1,0,2.51,5.45,6.11,9.23,14.67,8.67,22.32a37.42,37.42,0,0,1-2.83,10.94,7.82,7.82,0,0,1-1,3c-.81,1.45-2.82,5.67-4.47,9.23-1.76,4.09-3,5.94-4.74,6.92-4.57,6.31-10.64,11.3-16.53,16.48-7.4,6.51-14.31,13.41-22.19,19.37a129.34,129.34,0,0,1-28.29,16.16c2.62-.38,2.54-.18-.13,1.49-1.67,1.14-2.95,2.49-2.77,3.11s-1.1,2-3,2.83a5.84,5.84,0,0,1-3.06.78c-.61.67-1.24,1.31-1.86,1.94-.21.82-.47,1.09-.8.79a59.09,59.09,0,0,1-21.22,13,5.69,5.69,0,0,1-1.08.27c-2.67,2.08-6.52,3.79-8,3-.92-.51-3.1,0-4.77,1.13-3.06,2.08-3.06,2.08.2,1.49s3.26-.59-1.19,2.44c-2.51,1.71-5,2.4-5.4,1.64s-2.75-.33-5.3.84c-6.9,3.39-9.21,5.38-4.13,3.38,2.47-1,4.89-2.27,5.26-2.93s.78-.77,1-.16c.65,1.92-10.46,7.61-11.53,5.81-.44-.76-.85-.65-.76.44s-2.38,3.33-5.35,4.95c-2.92,1.82-4.88,3.48-4.22,3.85s-.16.6-1.65.8-2.4.9-2,1.79,1.71,1,3.44,0c8.1-4.62,17.58-5.53,10.36-.94a41.41,41.41,0,0,0-4.62,3.63c-1.13,1.09-2.49,1.37-2.85.48-.82-1.32-4.51,1.28-7.46,5.32a44.65,44.65,0,0,1-3.74,3.6c-4.9,3.82,2.32,3.88,10.85,0,5-2.2,11-4.55,13.51-5,8.72-2,49.74-24.49,50.36-27.76.19-1.27.81-1.45,1.43-.41s1.3,1.07,1.67.41,4-1.57,7.9-1.79c4.59-.19,7.68-1.4,8.64-3.11,1.91-3.42,13.22-8.83,18.21-8.81a8.78,8.78,0,0,0,6-2.36c1.28-1.36,7.18-5.13,13.26-8.29,8.16-4.41,10.9-5.3,10.6-3.22-.14,1.48-2.16,4.49-4.42,6.67-3.33,3.49-3.62,4-1.11,3.52a6,6,0,0,0,3.9-2.65,10.59,10.59,0,0,1,4.54-3.5c3.92-1.78,5.57-3.79,2.93-3.71s-1.06-1.8,2.93-3.71c1.93-1,3.34-2.27,3.37-2.95-.17-.61,0-.67.34,0s2.73.67,5.46.12c3.62-.91,4.08-.82,1.74.28-3.16,1.34-3.24,1.47.33,1.57,1.49,0,4.84-1,8.39-2.5a7.75,7.75,0,0,1,3.58-2.72c12.07-4.65,21.63-19.53,27.68-30.32,7.31-13,11.27-27.67,13-42.47.89-7.82,1.25-15.69,1.45-23.55C238.43,97.9,238.47,91.91,234.82,85.88ZM92.72,72.37a26.09,26.09,0,0,0-7,3.86c-1.35,1.49-3.14,2.22-3.79,1.85a1.07,1.07,0,0,0-1.57.33c-1.16,3.32-2.93,3.71-8.74,2.36C68,79.94,63.83,79,62.49,78.61c-6.27-1.43.19-4,11.82-4.78,6.83-.5,12.75-1.51,13.19-2.29s2.49-1.37,4.64-1.2C97.45,70.7,97.58,70.78,92.72,72.37Zm88.4,24.89c-.39-.22-.68-1.25-.71-2.12s.6-1.39,1.26-1a1.55,1.55,0,0,1,.71,2.12C182,96.91,181.38,97.42,181.12,97.27Zm3.58,7.18a1.51,1.51,0,0,1-2,.58,1.62,1.62,0,0,1-.58-2,1.51,1.51,0,0,1,2-.58A1.42,1.42,0,0,1,184.7,104.45ZM61.78,245.39c-1.11.76-2.15,1.38-2.42,1.24s0-1.21.58-2.27,1.63-1.68,2.42-1.24S62.76,244.56,61.78,245.39Zm15.94-5.07a2.53,2.53,0,0,1-2.12.71c-.88,0-1.39-.6-1-1.26a1.65,1.65,0,0,1,2.12-.71C77.49,239.51,77.87,240.06,77.73,240.32Zm3.72-3.27c-2,.45-2,.24-.22-1.16,1.13-1.09,2.29-1.31,2.46-.7S82.88,236.65,81.45,237.06Zm22.1-4c-3.54.78-3.54.78-.35-1.23,1.74-1.27,3.38-1.73,3.69-1C107,231.49,105.6,232.43,103.55,233Zm-18.12-.29c-.44-.76-3.16-.21-5.93,1.35-3.53,2-4.69,2.21-3.73.5,1.54-2.76,16.94-12.1,29.83-18.18,4.61-2.08,8-3.27,7.6-2.48a6.09,6.09,0,0,1-3.19,2c-1.23.35-2.21,1.18-2.11,1.93.31.69,2.43,0,4.86-1.6s4.91-2.61,5.7-2.17S116,217.2,111.36,220C95.34,229.81,86.3,234.25,85.42,232.72Zm27-4.09c-.69.31-1.33-.4-1.47-1.69-.09-3.85.83-4.88,1.91-1.87C113.35,226.59,113.14,228.2,112.38,228.63Zm7.09-4.66c-4.4,3.24-5.58,2.58-3.29-1.84,1.06-2.51,2-3,3-1.75.83,1,1.84,1,2.28.24s.92-1,1.1-.42S121.36,222.44,119.47,224Zm33.61-15.38c-.19,1.27-.62,1.72-1.19.89a2.86,2.86,0,0,1-.14-2.84C152.79,204.8,153.49,205.71,153.08,208.59Zm.33-26.21c-2,.45-2,.24-.22-1.16,1.13-1.09,2.29-1.31,2.46-.7S154.85,182,153.41,182.37ZM167.8,198c-1.31,2-4.83,5.24-8,7.25-5.07,3.21-5.48,3.32-3.86.43,1.56-3.1,12.42-12,13.6-11.38C169.78,194.45,169,196.1,167.8,198Z" fill="#000"/><path d="M116.44,19.72a1.62,1.62,0,0,0,.58,2,1.51,1.51,0,0,0,2-.58,1.42,1.42,0,0,0-.58-2A1.51,1.51,0,0,0,116.44,19.72Z" fill="#000"/><path d="M82.1,18.82c-6.47-.16-6.79,1-.4,1.33,2.9.07,5.27-.16,5.41-.43C87.63,18.81,87.42,18.86,82.1,18.82Z" fill="#000"/><path d="M109.34,36.46c-2.08-.3-3.83-.24-4,0s4.06,2.61,10,5.25l2.78,1.21-2-2.65C113.7,37,113.7,37,109.34,36.46Z" fill="#000"/><path d="M72,19c-1.62.13-2,.58-1.13,1.09a3.82,3.82,0,0,0,3.1,0C75.88,19.14,75.35,18.85,72,19Z" fill="#000"/><path d="M44.58,65c-3.5,1.32-1.4,2.5,3.42,1.91,3-.4,3.13-.67,1.5-1.75A6.88,6.88,0,0,0,44.58,65Z" fill="#000"/><path d="M272.9,222c-1.48-10.32-7.66-19.64-15.71-23.44-3.83-1.79-8.49-3-10.39-2.7-8.56,1.43-14.74,9.71-14.37,19.23.22,5.47,0,5.87-3.66,7.79a9.52,9.52,0,0,1-6.89,1l-.61.25-.33.12-.27.16-1.5.84a28.45,28.45,0,0,1-3.63,1.73c-.22.09-.44.15-.66.22,1.69-.06,3.75-.17,6.28-.31,6.22-.32,6.48-.17,4,1.4-1.6,1-7.06,2.44-12.21,3s-9.73,2-10.25,2.9c-1.32,2.37-13.88,5.7-26.55,7.07-6,.6-11.9,2.15-13.25,3.64-1.63,1.68-3,2-4.14.62-.89-1.19-1.56-1.22-1.48-.14.21,4.26,14.17,8.61,30.38,9.55,8.75.4,16.43.55,17,.38a40,40,0,0,1,6.89-.29c4.24.13,5.84.67,6,2.3a2.12,2.12,0,0,0,2,2c1.08-.09,2-.79,2-1.66-.11-2,22.35-5.11,23.41-3.31.5,1,1.46.47,2.12-.71,1.25-2.24,1.38-2.16,1.78.82.34,2.78.55,2.72,2.72-.55,1.31-2,5.22-5,8.6-6.75C268.76,243,274.26,231.91,272.9,222Z" fill="#000"/><path d="M200.47,229.41c-.89.46-1.79.87-2.69,1.26a3.73,3.73,0,0,0,5-3A7.54,7.54,0,0,1,200.47,229.41Z" fill="#000"/><path d="M186.45,234c-1.27.24-2.54.45-3.82.65-3.94,2.55-3.31,3.9,1.18,2.29,2.33-.77,3.25-1.81,2.76-2.77A.74.74,0,0,0,186.45,234Z" fill="#000"/><path d="M220,260.48a1.62,1.62,0,0,0,.58,2,1.51,1.51,0,0,0,2-.58,1.42,1.42,0,0,0-.58-2A1.51,1.51,0,0,0,220,260.48Z" fill="#000"/><path d="M17.64,263.86c-3.81,2.19-6.72,4-6.33,4.23s3.7-1.38,7.78-3.42,6.86-3.93,6.33-4.23S21.45,261.68,17.64,263.86Z" fill="#000"/><path d="M321.22,51.25a11.46,11.46,0,0,0-4.39-2,10.91,10.91,0,0,0,1.82,1.42,6.3,6.3,0,0,1,2.14,2.3c0,.13.12.33.38.59s.38.46.38.59v.39c-.07,0-.11,0-.11-.1a20,20,0,0,0-2.57-2.16q-1.5-.78-2.25-1.27a1.18,1.18,0,0,0-.11-1.27,9.54,9.54,0,0,0-4.07-3,19.19,19.19,0,0,0-4.61-1.57c-.21,0-.3,0-.27.1s0,.1-.16.1a4.66,4.66,0,0,1-1.29-.64,4,4,0,0,0-1.39-.64c-.14,0-.21,0-.21.1s-.11.1-.32.1a2.17,2.17,0,0,1-1-.49,2.2,2.2,0,0,0-1-.49c-.36,0-.54.07-.54.2v.29a.75.75,0,0,0,.54,0q.43.69.64,1.08l4.29,1.37A12.07,12.07,0,0,1,310.93,48a1,1,0,0,1-.43.1l-19.39-4.9a6.45,6.45,0,0,1,2.25,0q-2.57-.88-3.86-1.37v-.49a2.66,2.66,0,0,1,1.82-.78A30.62,30.62,0,0,1,295,41.74q3.86,1.27,5.46,1.76c.28,0,.46-.1.54-.29s-.11-.33-.54-.59c-.36.33-.57.49-.64.49q.32,0-3.32-1.57a33.44,33.44,0,0,0-4.82-1.76,11.09,11.09,0,0,1-4-1.86,3.48,3.48,0,0,1,.86-1.08,1.44,1.44,0,0,0,1,.59q-.86-1-.64-1.47,1.61-2.25,2.57-3.43,6.86-8.62,18.86-16.17l2.79-1.67q1-1.18,1.5-2l-1.29-.2a52.76,52.76,0,0,0-5.89,2.64l-.32-.29a6.36,6.36,0,0,1,1.82-1.47l-1.39-1,.64-.59a3.16,3.16,0,0,1-2,.1q.43-.19,5.89-2.45,3.86-1.67,3.86-2.45t-1.29-1.47A5.92,5.92,0,0,0,312.11,5a15.92,15.92,0,0,0-8,2l-5.36,3.43a13.05,13.05,0,0,1-3,.49q-11.89,6.27-16.39,12.93-5,7.74-5,14.6a8.42,8.42,0,0,0,1.61,5.49A21.62,21.62,0,0,0,278.79,46a21.4,21.4,0,0,1,1.29,3,16.89,16.89,0,0,0,8.36,4.7l.64.59a82.18,82.18,0,0,0,10,2.45v-.39q-.11,0-7.5-2.35A21.18,21.18,0,0,1,285,50.86v-.49a3.5,3.5,0,0,0,1.07.39v-.29c0-.33.25-.49.75-.49a25.86,25.86,0,0,1,2.73.88,24.94,24.94,0,0,0,3.7,1.08q4.61.88,6.75,1.18a9.88,9.88,0,0,1,1,.69q2.46.2,3.64.2,5.46.49,7,2.15a4.76,4.76,0,0,1-2.14,3A4.28,4.28,0,0,1,309,60a15.35,15.35,0,0,1-4.39,2.84q-2,.39-3,.49-5,1.57-7.5,2.45a34.57,34.57,0,0,1-8.68,1.08h-4.07a7.8,7.8,0,0,1-3.54-1.08,10.26,10.26,0,0,1-1.39-1.67q-1.5-1.67-1.93-1.67c-.21,0-.3,0-.27.1s0,.1-.16.1q-.54,0-1.93-3.72-1.29,1.67-2.14,1.67-1.39,0-1.39-2.16a5,5,0,0,1,.64-1.76,2.26,2.26,0,0,0-.37-.24,2,2,0,0,1-.38-.24,3.24,3.24,0,0,0-.86.49,1.7,1.7,0,0,1-.75.39,1.82,1.82,0,0,0-1-.59,2.29,2.29,0,0,1-1.07.59,2.61,2.61,0,0,1-1.07-.44,2.62,2.62,0,0,0-1.07-.44,6.29,6.29,0,0,1,.32,1.57l-1.18,1.18q-.54,0-1.61-1.47.75,2,.86,2.15a6,6,0,0,1-1.39.59V61a6.19,6.19,0,0,0,.75,2.35,1.2,1.2,0,0,1,1,.49,5.4,5.4,0,0,1,.32.69l-1.5,1q-1.39-.59-1.18-.59h-1a1.47,1.47,0,0,0-.21.69q0,.88,2,2.16,1.18.69,2.25,1.37-1.18,2-.32,3.33a7,7,0,0,0,2.79,2.55q1.5.68,3,1.47a4,4,0,0,1,.11.78q3.11,2.25,4.5,3h-1.93a2.68,2.68,0,0,1-1.18-.68,8.58,8.58,0,0,0-1.5-.88,11.78,11.78,0,0,0-1.61-.39,5.75,5.75,0,0,0-1.5-1.18q1.5,2,5.68,3.33a19.43,19.43,0,0,0,5.89,1.18c.14,0,.21,0,.21-.1a.45.45,0,0,1,.32-.1,16.51,16.51,0,0,1,2.3.54,16.69,16.69,0,0,0,2.3.54,8.11,8.11,0,0,0,1.12-.2,7.08,7.08,0,0,1,1.23-.2,1.5,1.5,0,0,1,.7.2,1.53,1.53,0,0,0,.7.2q6,0,19.5-4.7a.34.34,0,0,1-.32-.2,9.57,9.57,0,0,1,2.14-1,1,1,0,0,1-1-.1v-.88a38.11,38.11,0,0,1-6,2.45,31.14,31.14,0,0,1-7.5,1.47q-2.36,0-1.82.1,0,.59-.32.59c-.16-.07-.29-.1-.43-.15v.15h-.64v-.29h.22a2.62,2.62,0,0,0-.65-.1c.14.33.11.52-.11.59a2,2,0,0,0-.75.2c-.14-.13-.18-.23-.11-.29a2.77,2.77,0,0,1,.32-.25,3.36,3.36,0,0,0,.32-.24q-4.93,0-5.89.1c0,.06.14.23.43.49l-1,.2-.11-.39c0-.2-.14-.07-.43.39h-.54a.56.56,0,0,1,.11-.34.46.46,0,0,0,.11-.24,1.39,1.39,0,0,0-.59.2,1.41,1.41,0,0,1-.59.2,1.67,1.67,0,0,0-1.71-1.08.94.94,0,0,0-.48.1,1,1,0,0,1-.48.1,10.72,10.72,0,0,1-4.18-1.27,7.75,7.75,0,0,1-1.71-1.08q8.14,1.76,9,1.76l5.09-.2,5-.2a1.45,1.45,0,0,0,.64-.2,1.39,1.39,0,0,1,.59-.2q8.78-1.47,13.5-2.65.53-.2,1.71-.69a6.64,6.64,0,0,1,1.39-.49c.21,0,.3,0,.27.1s0,.1.16.1.3-.06.27-.2,0-.2.21-.2a1.2,1.2,0,0,0,.7-.39c.28.26.39.39.32.39q1.61,0,6-2.74l.43.49q.43,0,1.71-1.86-.64.59-.86.59a6.74,6.74,0,0,1,2.14-2.15q2.36-2.94,3-3.92a26.2,26.2,0,0,0,1.39-2.35,9.39,9.39,0,0,0,.75-3.14l-1.29-5A5.45,5.45,0,0,0,321.22,51.25ZM307,9.26a7.82,7.82,0,0,1,1-.44,14.55,14.55,0,0,1,2.79-.49,2.76,2.76,0,0,1,.7.15,2.7,2.7,0,0,0,.7.15q-3.75,1.18-5.79,2a2,2,0,0,0-.16-.49,1.92,1.92,0,0,1-.16-.49A2.89,2.89,0,0,0,307,9.26Zm-3.16,67.27h.86v.29h-.86Zm-17.68,3.72.86.29-.11.29-.75-.29Zm-1,.2h.64v.39h-.64Zm-1.61-.1H285q-.64.59-.86.59H283Q283,80.35,283.61,80.35Zm32.47-8.72-.21-.2.75-.78.21.29Z" fill="#000"/><path d="M390.54,19.21a.25.25,0,0,0,.27-.15c0-.1.09-.15.16-.15a9.37,9.37,0,0,1,2.36.2v-.78q-3.64,0-5.46-.1l-.43.39a5.63,5.63,0,0,0-1.18-.1,1,1,0,0,0-.43.1h-.54a22.84,22.84,0,0,1-3.75-.2c.14.07.14.13,0,.2q-4.29.29-5.25.29a11.34,11.34,0,0,1-1.29-.2,11.62,11.62,0,0,0-1.29-.2.57.57,0,0,0-.43.29.58.58,0,0,1-.43.29,1,1,0,0,1-.54-.24,1.07,1.07,0,0,0-.43-.25c-.14,0-.2,0-.16.15s0,.15-.16.15h-.21c0-.06-.07-.1-.21-.1a.89.89,0,0,0-.54.29c0-.59.07-.95.21-1.08l9.32-.29,1-.29a4.3,4.3,0,0,1,1-.2,1.57,1.57,0,0,1-.86-.88q0,.49-.32.49a1.07,1.07,0,0,1-.75-.29c0,.26-.07.39-.21.39l-.54-.39a2.73,2.73,0,0,0-.86.29,3.66,3.66,0,0,1-.75.29c-.14,0-.23,0-.27-.15s-.13-.15-.27-.15-.89,0-2.25.15l-2.25.15a.6.6,0,0,1-.32-.2c.07-.13.14-.2.21-.2q3.32-.2,5.14-.39,0-.39-.64-.39a5,5,0,0,0-.75.1,5,5,0,0,1-.86.1h-1.29l-1-.1h-.54a22.15,22.15,0,0,1,2.46-.49q-6.32.39-7.5.39h-2.14l-2,.1h-5l-.48-1.32-2.52,0v.68c0,.59-.14.91-.43,1a2.3,2.3,0,0,1-.64-1.18l-1.82.29-.11-.49a3.35,3.35,0,0,1,.22-.31l-4.44,0c-.33.82-.5,1.27-.5,1.33a.93.93,0,0,1-.21-.54.92.92,0,0,0-.11-.44,1.09,1.09,0,0,1-.51-.35h-.52l0,.06s0,0,0-.06h-.34a17.17,17.17,0,0,1-1.67,1.14q-.43.69-.64,1.08a78.23,78.23,0,0,0-15.54,2.25.16.16,0,0,1-.11.15c-.07,0-.11.11-.11.24V20c.28,0,.43.2.43.59.07.85.11,1.31.11,1.37l-1.5.69a1.55,1.55,0,0,0,.11.69h-.86c0,.26-.07.43-.21.49L328,25.08h.21c0-.06.07-.1.21-.1q-.11,0,.32.88a1.65,1.65,0,0,1-1.82,0,2.27,2.27,0,0,0-.75-.24c-.57.26-.86.59-.86,1a.9.9,0,0,0,.21.69q1,.59,1.5.88a3.81,3.81,0,0,0,1.29.1c.14,0,.61-.06,1.39-.2s1.25-.2,1.39-.2a3.35,3.35,0,0,1,1.45.49c.61.33.84.49.7.49l1.07-.2a5,5,0,0,1,1.39,0q-.43.2,0,1.76a.18.18,0,0,1,.16.1c0,.07.12.1.27.1q-.11,0,1.71-.49a4.51,4.51,0,0,0-.11-1.39,6.42,6.42,0,0,1,1.29-.18,10.51,10.51,0,0,0,1.5-.34q1.29-.34,1.82-.44a2.44,2.44,0,0,1,.21,1q0,.2-.86,6.86h-.21L337.83,56q-.54,5.88-.54,5.68,0,.49,1.07,1.08v.39l-.21.1a.86.86,0,0,1-.32-.1c.21.39.28.65.21.78a1.15,1.15,0,0,1-.21.29c-.29.2-.07.43.64.69a3,3,0,0,0-.21,1q-.75,1.47-.11,2.15c-.36.26-.54.36-.54.29a1,1,0,0,1,.43,1.08,1.71,1.71,0,0,1-.54,1q.75.39-.21,1.57a2.22,2.22,0,0,0-.11.88c0-.06.07-.16.21-.29q.21.39-.43,1a.66.66,0,0,1,.11.78q0-.1.11.29c-.29.54-.52,1-.75,1.51v.25h-.12A11.43,11.43,0,0,0,335,80.84q0,1.86,2.25,7.15a58.39,58.39,0,0,1,.75-9.41q.11-1.76.21-2.65c.07,0,.18.1.32.29v1.18q-.11,2.45-.32,4.61v4.9a.53.53,0,0,1,.11-.39q.53,2.25.54,1.76,0-.2.64-.49a2.2,2.2,0,0,1,.32-1.18,6.91,6.91,0,0,1,.05,2.35,6.87,6.87,0,0,0,.16,2.65,3.59,3.59,0,0,1,.11-1.08q.21.49.32.78.75-1.37,1.07-2.06l.32-10.49a.55.55,0,0,1,.21.39.38.38,0,0,1,.11-.29.67.67,0,0,1-.32-.29q.53-.2.43-1.18h-.21a2.06,2.06,0,0,0-.43.49,2.23,2.23,0,0,1-.11-.88l1.07-8.72v8.82q0-.59.11-2A20.3,20.3,0,0,1,343,73c.11-.56.2-1,.27-1.23a4.3,4.3,0,0,0,0-1.37,5.55,5.55,0,0,0,.32-1.27,30.36,30.36,0,0,1,1.07-7.35q.64-4.21.86-6.27a6.43,6.43,0,0,0,.48-1.08,3.8,3.8,0,0,0,.16-1.18q.11-1.18.75-1.18c.28,0,.36,0,.21.1q-.32.88-.43,1.27a5.29,5.29,0,0,0,.11,1.27,81.9,81.9,0,0,0-2,16.66,1.4,1.4,0,0,1,.64-1q-.11,1.67-.43,5t-.32,3.43q0,.29.64.29l.54-3.23c-.36,0-.54-.13-.54-.39a2.18,2.18,0,0,0,.43-.49,12.37,12.37,0,0,1,.27-1.81,4.47,4.47,0,0,0,.16-.83q.43-2.55.75-4.8.53-3.14,1.18-3.14c.28,0,.43,0,.43.1a.76.76,0,0,1,.21-.59q0,1.47-.54,6.76c0,.07,0,.38.11.93s.11.9.11,1q.75-3.33,1.71-10.29,1-6.37,2.14-11.07.21-1,.86-4.7a17.59,17.59,0,0,1,1-3.62.7.7,0,0,1-.11-.29q3.86-13.91,4.18-14.89a9.34,9.34,0,0,0-.64,1h-.32a.92.92,0,0,0-.32-.1q-1.29,4-1.93,6.17v.49h-.32v-.49H355a.71.71,0,0,1-.11-.29,29.4,29.4,0,0,1,1.93-6.76.93.93,0,0,1,1-.49c.14,0,.21,0,.21.1h.11a3.42,3.42,0,0,0,.75-.15,3.55,3.55,0,0,1,.7-.15,7.54,7.54,0,0,0,.8-.1h.86q.11,0,2-.29a19.9,19.9,0,0,1,2.73-.29q6.32-.2,6.7-.29t.37-.59a3.59,3.59,0,0,1,1-.1,2.56,2.56,0,0,1,.59.1,2.48,2.48,0,0,0,.59.1l.75-.1a3,3,0,0,0,.91-.24l.43-.24a14.41,14.41,0,0,1,2.41-.2,3.15,3.15,0,0,0,1.93-.49,3.73,3.73,0,0,1-.86-.2,4.84,4.84,0,0,0-.75-.2c-.14,0-.23,0-.27.15a.25.25,0,0,1-.27.15h-5.79a1.19,1.19,0,0,0-.43-.2v.29h-1.61V24h1.61a169.5,169.5,0,0,1,18.54-1.86l.21-.2a1.68,1.68,0,0,0-1.29-.59,2.83,2.83,0,0,0-1.5.39q.43,0,.21.2a1.32,1.32,0,0,0-.86.2c-.07-.13-.07-.23,0-.29s.21-.23.21-.29a3.38,3.38,0,0,1-.86.59c-.29-.33-.39-.49-.32-.49s-.29.16-.64.49a.69.69,0,0,0-.64-.49A1,1,0,0,0,386,22c.21-.13.36-.13.43,0a1.68,1.68,0,0,1-1.18.39.57.57,0,0,1-.43-.29.71.71,0,0,1,.11-.29c-.07,0-.14.08-.21.24a1,1,0,0,1-.21.34,2.77,2.77,0,0,1-.54-.59q-1.07.39-.75.39a.46.46,0,0,1-.32-.1h-.43a1.35,1.35,0,0,0-.54.15,1.34,1.34,0,0,1-.54.15,26.36,26.36,0,0,1-4-.29.28.28,0,0,1,.11-.2.27.27,0,0,0,.11-.2q7.07-.2,11-.39a8.47,8.47,0,0,0,.86-.29,3.29,3.29,0,0,1-.11-1.37h-3.32a2.91,2.91,0,0,1,1-.59,18.18,18.18,0,0,1,3.21-.2c.07,0,.09,0,.05.15S390.4,19.21,390.54,19.21ZM340.83,66.14h-.32l.21-.88H341Zm4.82-49.48h-.75a2.35,2.35,0,0,1,1-.68A.9.9,0,0,0,345.65,16.66Zm1.71,40.27h-.21l.11-1.37h.32Zm.54-2.55a3.35,3.35,0,0,1-.54,1,35.45,35.45,0,0,1,.43-4.31q.21-1.76.86-2A40.94,40.94,0,0,0,347.9,54.38Zm.86-5.78h-.32V48h.32Zm18.43-23.91h-1.39v-.2h1.39Zm1.61-.49.75.2-1.07.29C368.47,24.56,368.58,24.4,368.79,24.2ZM370,25.58l-.75.2v-.29l.75-.1Zm2.36-.2v.29h-1.71v-.29ZM382.08,20l.21-.29.54.29Zm2.46-.29-.86.2v-.2l.86-.2Z" fill="#000"/><rect x="339.22" y="86.52" width="0.32" height="0.39" fill="#000"/><rect x="342.01" y="66.04" width="0.32" height="0.39" fill="#000"/><rect x="344.15" y="79.17" width="0.32" height="0.39" fill="#000"/><rect x="344.36" y="64.38" width="0.21" height="0.39" fill="#000"/><rect x="345.33" y="76.14" width="0.21" height="0.59" fill="#000"/><rect x="347.47" y="70.45" width="0.21" height="0.49" fill="#000"/><polygon points="348.65 63.79 348.33 63.4 348.44 63.3 348.86 63.69 348.65 63.79" fill="#000"/><polygon points="370.61 24.4 370.61 24.2 370.94 24.01 371.04 24.2 370.61 24.4" fill="#000"/><rect x="371.36" y="18.13" width="0.43" height="0.29" fill="#000"/><polygon points="382.19 15.87 381.97 16.07 382.29 16.27 382.4 16.17 382.19 15.87" fill="#000"/><polygon points="385.19 19.7 385.19 19.5 385.94 19.7 385.94 19.89 385.19 19.7" fill="#000"/><polygon points="392.15 21.56 391.83 21.36 392.04 21.16 392.26 21.36 392.15 21.56" fill="#000"/><path d="M438.33,26a3.63,3.63,0,0,1-.64-1.47,17.76,17.76,0,0,1-2-2,3.56,3.56,0,0,0,.51-.43,6.69,6.69,0,0,1-1.29-2.29c-.12-.14-.22-.22-.29-.22H434a1.9,1.9,0,0,1-.54.1q-.64,0-1.07-1.76a2.58,2.58,0,0,1-.91-.25,2.71,2.71,0,0,0-.8-.24,6.1,6.1,0,0,1,.64,1.27,4.91,4.91,0,0,0-1,.68,2.3,2.3,0,0,1-.43-1,5,5,0,0,1-1-.25,6.67,6.67,0,0,0-1.46,1,.39.39,0,0,1,0,.39,1.28,1.28,0,0,1-.86.39,1.36,1.36,0,0,1,.11,1,.38.38,0,0,1-.11-.29.38.38,0,0,1-.11.29.72.72,0,0,1-.21.88.82.82,0,0,1-.11-.69,2.09,2.09,0,0,0-.21.69.6.6,0,0,1-.32-.2,1.6,1.6,0,0,0-.32-1.18,7.09,7.09,0,0,1-.11,1.76,42.07,42.07,0,0,0-3.11,8.13q-.22,1.08-1.39,7.25A81.18,81.18,0,0,0,419.58,46a2.24,2.24,0,0,0,.21,1.08q.43-1.57.64-2.25a7.21,7.21,0,0,0,0-1.76,6.52,6.52,0,0,0,.32-2,4.41,4.41,0,0,0,.64-2.16,1,1,0,0,1,.64-.29.58.58,0,0,1,0-.49c-.29,0-.43-.13-.43-.39a2.17,2.17,0,0,1,.32-1q.32,0,.32.29v-.59a.62.62,0,0,1,.32.2,2.49,2.49,0,0,0-.4-.62c.48-.41.72-1.34.72-2.81a6.31,6.31,0,0,0,.86-2.35,7.61,7.61,0,0,1,.86-2.45.32.32,0,0,1,.11.24c0,.1,0,.15.11.15l-.43,2.06a19.37,19.37,0,0,1-.75,2.45V34a2.29,2.29,0,0,0-.43,1.08,12.5,12.5,0,0,0-.21,1.86q-.32.88-.64,1.67a.32.32,0,0,1,.21.29q-.75,2.65-1.07,3.92a24.92,24.92,0,0,0-.54,2.65,7.33,7.33,0,0,0-.43,3.23,7.45,7.45,0,0,1-.32,3,11.92,11.92,0,0,0-2.79,2.55.27.27,0,0,1-.11-.2.12.12,0,0,0,0-.2,10.22,10.22,0,0,1,.75-.78,5.79,5.79,0,0,1,.43-1.47.63.63,0,0,0,.43.2l.75-1.47a.84.84,0,0,1,.11.69,3.08,3.08,0,0,0,.21-.78,5.7,5.7,0,0,0,.11-.78c-.14.33-.25.56-.32.69a1.08,1.08,0,0,0-.75-.29q-.64,0-1.71,1.57t-1.18,1.67a8.44,8.44,0,0,1-.64-.88.78.78,0,0,0-.75-.39c.07,0-.07.16-.43.49a1.24,1.24,0,0,1,.75.78,1.47,1.47,0,0,1-.11,1l.22.2a7.58,7.58,0,0,0-.76,1.56q-.86,2.55-1.29,3.92a45.63,45.63,0,0,1-3.21,4.11q-1.61,2.06-2.57,3.33c-.07.33-.18.49-.32.49h-.21c.07-.06,0-.1-.11-.1s-.39.24-.75.74-.57.73-.64.73c-.29,0-.39,0-.32-.1a24.27,24.27,0,0,0,1.61-1.86q.43-1,.64-1.57l-1.07,1a.64.64,0,0,0-.16.34,1.83,1.83,0,0,0-.05.34,17.59,17.59,0,0,1-2.79,1.86,2.61,2.61,0,0,1-.54-.69,6.18,6.18,0,0,0,.75-1.08l-.21.1h-.54q-1.07,0-1.07-1.18,0,.1.43-.39a11.15,11.15,0,0,1-.86-1.86c.1-.23.16-.34.19-.34a2.06,2.06,0,0,1-.3-.83q.32-.2.11-1.18.21-.39.43-.88a.73.73,0,0,0-.11-1,34.83,34.83,0,0,1,.21-3.63V52a64.53,64.53,0,0,1,2.46-16.76v-.59q.86-3,1.29-4.7,1.29-3.43,1.93-4.9.11-.78.16-1.27a.6.6,0,0,1,.48-.59.89.89,0,0,0,.54.1c0-.06-.14-.23-.43-.49.79-.72,1.18-1.18,1.18-1.37l-.64-.2-1.29.88v-.29a15,15,0,0,1,.54-1.57,14.31,14.31,0,0,0,1.82.1q.21,0,1.07-.78h-.64a.84.84,0,0,1-.43.69c-.21-.2-.36-.29-.43-.29a1.2,1.2,0,0,0-.59.15,1,1,0,0,1-.38.15,1.12,1.12,0,0,1-.43-.2,2,2,0,0,1,.75-1.08.89.89,0,0,0,.54.1c0-.26,0-.42.11-.49a2.16,2.16,0,0,1-1.07-.2,1.71,1.71,0,0,1,1.18-.49l1.82.59c0-.2.11-.29.32-.29v-.78q.11-1.37-1-1.37-1.39,0-1.18,1.27a1.24,1.24,0,0,1,.43.2H407.9a.76.76,0,0,1-.21-.59,1.58,1.58,0,0,0-.54.29,1.37,1.37,0,0,1-.64.29c-.21,0-.32-.06-.32-.2a9.41,9.41,0,0,1-1.29,2.35,1,1,0,0,0-.86,0,.53.53,0,0,1-.11-.39,17,17,0,0,1,2.2-2.69,8,8,0,0,0,.7-.54,4.26,4.26,0,0,1-.86-1,1,1,0,0,0-.43-.1q-.86,0-1.82,1.37c-.43.59-.86,1.21-1.29,1.86a2.06,2.06,0,0,1-.21-.68q-.11,0-.16.24a.66.66,0,0,1-.16.34.89.89,0,0,1-.21-.49l.43-.49-.54.39-1-.49-.75.49q-.75-.78-1.07-.78t-.32.49a4.53,4.53,0,0,0-.11.59l-1-.49A8.78,8.78,0,0,0,398,18a.79.79,0,0,0-.16.2.78.78,0,0,1-.16.2.65.65,0,0,0-.43-.2,14.27,14.27,0,0,0-1.45,2.11,11.85,11.85,0,0,1-1.66,2.3,19.85,19.85,0,0,1,2.25-4.8,1.15,1.15,0,0,1,.21-1.18,17.33,17.33,0,0,0-3.75,6.27q-1.29,3-1.82,4.61a51.8,51.8,0,0,0-1.29,6,118.26,118.26,0,0,0-1.71,12.74v10q0,.1.64,4.7.64,5.19.86,7.45l.54.49a30.19,30.19,0,0,0,3,4.8A10.24,10.24,0,0,0,395.69,76q1.29.78,2,1.27a5.13,5.13,0,0,1,1.71,1.76,10.08,10.08,0,0,0,4.07.88,2,2,0,0,0,.54.2q.21,0,2.2-.34t2.2-.34a5.1,5.1,0,0,1,1,.2,5.24,5.24,0,0,0,1,.2,6.16,6.16,0,0,0,2.57-.49c.07-.39.21-.62.43-.69a2.45,2.45,0,0,1-.86-.1,1,1,0,0,1-.75.39l-1.29-.39a55.78,55.78,0,0,1,4.61-3.43q.75-1.57,1.39-1.57h.43a.32.32,0,0,0,.21.1c-.07,0-.21-.1-.43-.29A1.71,1.71,0,0,0,417,73c-.08.08-.19.06-.33-.07a5.84,5.84,0,0,0,.86-.74,5.74,5.74,0,0,1,.86-.73l.21.2a17,17,0,0,1,.21,2.06,48.44,48.44,0,0,0,1.61,6.86,53.69,53.69,0,0,1-.86-6q.11-.19.64-.1c.36.26.54.49.54.69q.75,5.29.86,6.17a3.23,3.23,0,0,1-.32.39,1.51,1.51,0,0,1,.64.88,45.68,45.68,0,0,0,1.82,6.47A6.28,6.28,0,0,0,424,87.7q.86,1.67,1,2a.82.82,0,0,0-.11-.39,3.74,3.74,0,0,0,0-1.27q-.11-1.67-.11-1.47,0,.49-.54-1.18a5.49,5.49,0,0,1,.11-.78.31.31,0,0,1-.21.29,4.21,4.21,0,0,1-.54-1.76,1.09,1.09,0,0,1,.43-.78c.36.59.64,1,.86,1.37V81.82q0,.29-.43-1.76a.54.54,0,0,0,.11-.39l.21.2c.21,0,.32,0,.32-.15s0-.15.11-.15q-.43-2.45-.54-3.53.32.19.43,0,.43,1.08.21,1.37Q426.76,81,426,82c.21-.2.36-.29.43-.29a3.13,3.13,0,0,1,.32,1.76,1,1,0,0,0-.21-.15l.06.41,0-.06a3.89,3.89,0,0,1,.54,2.06,3.86,3.86,0,0,1,.16-1,3.82,3.82,0,0,0,.16-.78c0-.07-.11-.47-.32-1.23a8.73,8.73,0,0,1-.32-1.32c0-.33,0-.52.11-.59a1.61,1.61,0,0,1,.54,1.57q1.07,2.25.75,3.23l.43-.39q.53,2,.54,1.57a.53.53,0,0,1,.11-.39,2.05,2.05,0,0,1,.43,1.47q0-.1.16-.24a.45.45,0,0,0,.16-.34q0-.1-.21-1.37a12.63,12.63,0,0,1-.21-2c0-.07-.09-.16-.27-.29s-.27-.23-.27-.29.07-.29.21-.29a2.94,2.94,0,0,1,.27-1.32q.26-.53.47-.91l-.27-.4c.11.37-.09.76-.68,1.16l-.11-.69a9.23,9.23,0,0,1-.21-3.82,2.91,2.91,0,0,1,1,.88q-.11-2-.11-3.23a6.12,6.12,0,0,1,.11-1.27V73.2q-.32-1.67-.64-1.67V68.3c.28-.65.46-1,.54-1a6,6,0,0,1,.21,2.65,39.08,39.08,0,0,1,.21,5.29.9.9,0,0,0-.21.49.31.31,0,0,1,.21-.29,2.77,2.77,0,0,0,.21.68v3.43h-.54a3.38,3.38,0,0,0,.86.59V83c-.21.2-.32.33-.32.39a.92.92,0,0,1,.54.1,4.28,4.28,0,0,1,0-1.37,1,1,0,0,0,.21-.39c0-.2-.05-.31-.16-.34s-.16-.08-.16-.15L431,81q.32,0,.32-1.47a.67.67,0,0,1-.43-.1,1.79,1.79,0,0,0,0-2.06,1,1,0,0,1,.21-.39,25.25,25.25,0,0,1-.32-4.41,1.47,1.47,0,0,1,.11-.39,1.51,1.51,0,0,0,.11-.49,2.66,2.66,0,0,0-.16-.69,2.63,2.63,0,0,1-.16-.69q0-2.84,1.18-14.8.43-2.84.64-4.21a2.16,2.16,0,0,0,.43-.78c-.14-.85-.14-1.31,0-1.37a.91.91,0,0,1,.32.1q-.43-.19.11-1.18l-.11-.29a1.58,1.58,0,0,0,.32-.79,1.2,1.2,0,0,0-.21-.29,31.6,31.6,0,0,0,1.18-4.9,31.31,31.31,0,0,1,1.29-5.49,5.09,5.09,0,0,1,.43-1.18l.32.88q.43-1.67.64-2.35a.65.65,0,0,1-.43-.1c.07,0,.11,0,.11-.15s0-.15.11-.15a.66.66,0,0,0,.43.1q-.11-.1.32-1.08l-.27-.24-.27-.24a1,1,0,0,1,.64-.39,14.71,14.71,0,0,1,.75-2.45.59.59,0,0,0,.32.2,3.35,3.35,0,0,1,.16-1.47,7.45,7.45,0,0,0,.27-1.18,5,5,0,0,0-.64-2.16A8.37,8.37,0,0,1,438.33,26ZM393.54,24.2l-.21-.1.32-.69h.21Zm5.79,53.7c-.36.06-.54-.07-.54-.39a2.11,2.11,0,0,1,1.29.39Zm1.39-35a6.07,6.07,0,0,0-.21,1.27,3.14,3.14,0,0,0,.11,1.57,11.18,11.18,0,0,0-.86,5.19.31.31,0,0,0,.21.1v.69a.74.74,0,0,0-.11-.49l-.21.2q-.43,5.49-.43,8.82,0,.69-.21-5.49l1.5-13.62a1.1,1.1,0,0,1,.43.78C400.94,42,400.86,42.33,400.72,42.92Zm-.11-23.81q0,.1,1.18-1a5.87,5.87,0,0,1-.86,2A2.78,2.78,0,0,1,400.61,19.11Zm2.25,48.41.11.2-.32.39-.21-.2Zm19.5-15a1,1,0,0,0,.11.49,8,8,0,0,0,.64-1.57,1.46,1.46,0,0,1-.11-.39.71.71,0,0,1,.21-.44.71.71,0,0,0,.21-.44v1.57a2,2,0,0,1-1.07,1.67Zm1.39,33.32h-.21l-.32-1.47h.21Zm.32-4.41c-.07.06-.11.26-.11.59a.46.46,0,0,1-.32-.1v.39a1,1,0,0,0-.4-.09c0-.1.09-.41.19-1-.07-.52-.18-.78-.32-.78s-.21,0-.21.1h-.11c0-.07.11-.2.32-.39q0-.49-.64-.69c.28,0,.43-.1.43-.29a.63.63,0,0,0-.43-.59V77.51a7.69,7.69,0,0,1-.11-1.18.37.37,0,0,0,.43.1,22.58,22.58,0,0,1-1.18-5V65.16a3,3,0,0,0,.54-1.27.74.74,0,0,1-.27.29.3.3,0,0,0-.11.13,1.75,1.75,0,0,1,.43-.86,1.63,1.63,0,0,0,.48-1.08,21.57,21.57,0,0,1,.21-2.2,3.69,3.69,0,0,0,0-2.16.88.88,0,0,0,.32-.1.89.89,0,0,1,.32-.1v6.66a5.4,5.4,0,0,1,.32,1.76c-.07.33-.14.62-.21.88q.21,5,.43,7.54c0,.13,0,.46-.11,1s-.11.82-.11.88A35.74,35.74,0,0,0,424.4,82Zm3.64-.59q-.86-1.86-.86-2c0-.13.14-.23.43-.29a10.59,10.59,0,0,1,.43,1.76Zm2.14-17.74a1.47,1.47,0,0,0,.21-.68v2.15a1.29,1.29,0,0,0-.21-.44,1.13,1.13,0,0,1-.21-.54A1.62,1.62,0,0,1,429.87,63.1Zm.32,3.14h-.32v-.69h.32Zm0-.88h-.32v-.49h.32Zm0-3.23h-.32l.21-.69h.21Zm2.14-37.92-.43.29a1.14,1.14,0,0,1-.32-.88h.75Zm1.93-.69a1.73,1.73,0,0,1-.64-.2c.14,0,.21-.1.21-.29a2.7,2.7,0,0,0-.64-1.37V20.48a.46.46,0,0,1,.32.1l.75-.69a1.4,1.4,0,0,0,.32.49c-.07,0-.16.08-.27.24a.82.82,0,0,0-.16.34l.86.39A6.37,6.37,0,0,1,434.26,23.52Z" fill="#000"/><polygon points="393.44 24.5 393.22 24.5 393.01 24.99 393.22 25.09 393.44 24.5" fill="#000"/><rect x="393.76" y="22.93" width="0.32" height="0.39" fill="#000"/><polygon points="399.97 14.99 399.76 14.99 399.54 14.5 399.76 14.4 399.97 14.99" fill="#000"/><polygon points="420.87 81.33 420.65 81.33 420.44 80.94 420.65 80.84 420.87 81.33" fill="#000"/><rect x="421.29" y="85.15" width="0.21" height="0.39" fill="#000"/><rect x="421.62" y="84.07" width="0.21" height="0.39" fill="#000"/><polygon points="422.47 68.69 422.26 69.08 422.04 68.98 422.26 68.59 422.47 68.69" fill="#000"/><rect x="423.01" y="83.98" width="0.32" height="0.39" fill="#000"/><polygon points="425.37 81.04 425.15 81.04 424.94 80.55 425.15 80.45 425.37 81.04" fill="#000"/><rect x="428.47" y="87.6" width="0.21" height="0.59" fill="#000"/><polygon points="432.12 85.35 431.9 85.74 431.69 85.64 431.9 85.25 432.12 85.35" fill="#000"/><rect x="431.79" y="81.23" width="0.32" height="0.39" fill="#000"/><rect x="432.01" y="82.21" width="0.21" height="0.59" fill="#000"/><polygon points="432.87 76.73 432.65 76.73 432.44 76.43 432.65 76.33 432.87 76.73" fill="#000"/><rect x="432.65" y="56.05" width="0.21" height="0.39" fill="#000"/><rect x="432.97" y="78.69" width="0.21" height="0.39" fill="#000"/><path d="M511.3,28.51a6.21,6.21,0,0,0-2.14-1.18.42.42,0,0,0,.11-.49,18.69,18.69,0,0,0-.54-2,19.28,19.28,0,0,0-1.61-2.7q-1.4-2.1-2.14-2.11a.72.72,0,0,0-.38.1.69.69,0,0,1-.37.1c-.36,0-.54-.23-.54-.69q0-.39,1-.39a12.56,12.56,0,0,0-1.18-1,7.33,7.33,0,0,1,.43.88l-.75.1a2.56,2.56,0,0,0-.49-.74c.32-.36.49-.6.49-.73l-.48-.44c-.18-.16-.3-.24-.38-.24a1.39,1.39,0,0,1-.32.49,2,2,0,0,1-1-1.27,14,14,0,0,1-3.54-3.14,1.69,1.69,0,0,1-.86-.29,33.48,33.48,0,0,0-5.68-2.25q-6.65-1.66-9.86-2.64-.75-2-1.29-3a14.65,14.65,0,0,1,.54-3.63,5.11,5.11,0,0,0-1.39-.88,4.09,4.09,0,0,0-.8.15,5.14,5.14,0,0,1-.7.15q-1,1.47-1.39,2.25a10,10,0,0,1-1.34.34c-.75.16-1.16.41-1.23.73q-.54-.68-.75-.59a3.84,3.84,0,0,0,.54-1.27,7.61,7.61,0,0,0-1.82.49l-.32-.39a3.68,3.68,0,0,1-.54,1.08,2.44,2.44,0,0,1-.32-1.18,5.32,5.32,0,0,0-2.89,2.94q-.54,1.57-1.18,3.23-.22.29-1.29.29a3.14,3.14,0,0,1-.64-.1,3.27,3.27,0,0,0-.64-.1,3.75,3.75,0,0,0-.91.24,3.72,3.72,0,0,1-.91.24,2.28,2.28,0,0,1-1.07-.59c.12.28-.07.58-.54.9-.2.59-.41,1.17-.63,1.74h.21c-.21-.13,0-.36.54-.68a.3.3,0,0,1-.11.49,6.12,6.12,0,0,1,1.39-.1,1.77,1.77,0,0,1,1.71.78l-.43.39a3.46,3.46,0,0,0-1.07-.29q.32,0-1.18.69c.21.13.25.23.11.29a13.34,13.34,0,0,1-1.61.78,2.8,2.8,0,0,0-.54.78l-.25-.23q-.65,1.39-1.43,2.74a1,1,0,0,0,.19.13q.64-1.67,1.61-1.67a.47.47,0,0,1,.32.1.82.82,0,0,1-.11.39c.43,0,.82.29,1.18.88q.32-.59.64-.49l.43.29q-.75.88-1.07.88a1.28,1.28,0,0,1-1.29-.69,7.47,7.47,0,0,1-.43.88l-.43.78a10.34,10.34,0,0,1,1.5.78,1,1,0,0,0,.86-.39.73.73,0,0,1,.11.29,1.69,1.69,0,0,1-.75.39c-.14,0-.48,0-1,.1a10.8,10.8,0,0,1-1.12.1,8,8,0,0,1,.75.78c.21.2.21.43,0,.69h1.18a11.08,11.08,0,0,0,1.55-.24,13.4,13.4,0,0,1,1.45-.24,2.41,2.41,0,0,1,1.5.49q-1,3.43-1.18,4.21-1.39,3.73-2.14,5.39-5.57,23-8.25,34.69-.22,1.08-1.61,1.08c-.29,0-.47-.07-.54-.2l-8.89,2.25a20.88,20.88,0,0,0-3.64.59c.07.2,0,.29-.11.29h-.75a3.4,3.4,0,0,1-.75.1,1.3,1.3,0,0,1,.54.1c-.36.33-.54.46-.54.39q9.21-1.27,12.43-1.86a9.88,9.88,0,0,0,1.82-.54,10.8,10.8,0,0,1,1.29-.44c.28,0,.39,0,.32.1v.49a7.86,7.86,0,0,0-.64,1.57q-8.36,2.06-12.64,2.94a1.56,1.56,0,0,1,.75.1c-.57.2-1,.33-1.29.39l1,.2q1.5-.19,4.93-.88,3.11-.59,3.21-.59a1.17,1.17,0,0,1,.43.2,3.53,3.53,0,0,1-1.82.59h-.11c0-.06-.07-.1-.21-.1L441.86,73q1.5-.1,4.5-.34t4.5-.34a7.24,7.24,0,0,0-.43,1.08l-8.36,1.67h.75a37.77,37.77,0,0,0,4-.59,12.69,12.69,0,0,1,3.64-.2c0,.13-.18.29-.54.49l-11.46,1.67q4.39-.29,6.54-.29a19.25,19.25,0,0,1-2.79.59l8-.59v.59l-.32.59h.75a51.65,51.65,0,0,0-1.39,6.57q1.29-5.19,1.93-7.74a.64.64,0,0,1,.43-.2,19.41,19.41,0,0,1-1,5.29q-1.39,4.31-1.39,4.51a.37.37,0,0,1,.11-.29.93.93,0,0,1,.27,0,.69.69,0,0,1,.27.15c-.21.2-.18.52.11,1,.28-1.18.43-1.83.43-2a2.9,2.9,0,0,1,.64-.49,2.08,2.08,0,0,1,.43-1q.32,1,.64,1.08a3.54,3.54,0,0,0-.54.93,5,5,0,0,1-.38.83,1.78,1.78,0,0,0-.27.69v.88a5,5,0,0,1,1.18-.39,17.5,17.5,0,0,0,1.07-2.35,6.16,6.16,0,0,1,1.29-2.16.9.9,0,0,1,.32.69A8.53,8.53,0,0,1,456,81.82a.72.72,0,0,0,.05.24c0,.1.09.15.16.15q-.86,2.94-1.71,7.15,1.5-3.53,2.36-5.19a3.49,3.49,0,0,1,.21-1.37l.43.39q.86,0,3-5.88a1.21,1.21,0,0,0,.64.39q.53,0,1.39-1.57.42-.87.74-1.64a2.32,2.32,0,0,0,.44.37,2.24,2.24,0,0,0-.32.78,1.72,1.72,0,0,1-.21,1,1,1,0,0,1,.32,1q-1.39,4-2.14,6a21,21,0,0,0-.21,2.45l.32.2q1.18-3.73,1.71-5.68,1.82-5.19,2.89-7.94,2-.39,4.18-.88a4.9,4.9,0,0,0,3-1.67,34.06,34.06,0,0,0-3.32,1,.44.44,0,0,1-.43-.2,20.59,20.59,0,0,1,5.36-1.67,1.08,1.08,0,0,1,.75.29l.43-.32v0l1,.2v-.29l-.67-.14a6.43,6.43,0,0,1,1.85-.94.93.93,0,0,1,.64.2c-.5.33-.93.59-1.29.78l1.34-.29c.61-.13,1-.23,1.23-.29,0-.06-.2-.1-.59-.1s-.55,0-.48-.1v-.49l5.68-2.84a.12.12,0,0,1,0,.2c0,.13.07.2.21.2a.54.54,0,0,0,.48-.24c.11-.16.2-.24.27-.24a.65.65,0,0,1-.43-.1,11.52,11.52,0,0,1,2.3-1.47,3.91,3.91,0,0,1,1.34-.39,1,1,0,0,1,.64.29,5.2,5.2,0,0,0-1,.44,2.2,2.2,0,0,0-1.07.93.92.92,0,0,1,.54.1,2.43,2.43,0,0,1-1.29.78c-.29,0-.36,0-.21-.1a3.55,3.55,0,0,1,.75-.69q-1.29.59-2,.88h.43a1.94,1.94,0,0,1,.54-.1l.54.49A38.3,38.3,0,0,1,482.15,68c-.07,0-.29-.16-.64-.49l.21-.29c-.07.07-.29.23-.64.49a5.38,5.38,0,0,1-.75.49h.32a1,1,0,0,1,.43-.1c.5,0,.71.16.64.49q11.79-5.88,13.18-6.66a28.91,28.91,0,0,0,5.46-4.61c.57-.59,1-1,1.39-1.37a4.19,4.19,0,0,1,.54-1.37c1.07-1.18,1.89-2,2.47-2.55q1.39-2.15,2-3.23a.7.7,0,0,1,.64-.39,1,1,0,0,1-.21-.39,1.08,1.08,0,0,0-.21-.39,1.28,1.28,0,0,0-.64.34,1.55,1.55,0,0,1-.54.34.66.66,0,0,1-.43-.1,41.27,41.27,0,0,0,3-4.31q1.18-2.15,1.18-2.25,0,.29.64-1.47.32-1.18.43-1.67a1,1,0,0,1-.21-1.18.41.41,0,0,0,.54,0,1.22,1.22,0,0,1-.54-1.18c.07-.91.11-1.47.11-1.67q-.32-1-.32-.59a1.14,1.14,0,0,0-.43.2,14.54,14.54,0,0,1-.11-1.47q.21-1.47.32-1.18a3.25,3.25,0,0,0-.32-.39c0,.07.21.1.64.1a1.33,1.33,0,0,0,.37.54.72.72,0,0,1,.27.54c0,.13-.18.33-.54.59a1,1,0,0,1,.75.39,8.64,8.64,0,0,1,.32,1.86c0-.46,0-.72.11-.78l.32.29a23.68,23.68,0,0,1,.54,5.39c0-.2.14-.29.43-.29,0-.26,0-.72.11-1.37s.11-1,.11-1.18A19.83,19.83,0,0,0,511.3,28.51ZM459.65,15.58a3.5,3.5,0,0,1,.21-.49.91.91,0,0,1,.21.69A1.15,1.15,0,0,1,459.65,15.58Zm1.5,3.23.21-.29.64.29Zm1.18-6.57h-.64V12h.64ZM447.44,72.32h-.54V72h.54ZM450,75.55l-2.57.29v-.2l2.57-.39Zm-1.29-3.63-.64.2v-.29l.64-.2Zm1,0h-.75v-.29h.75Zm1.29-.29-1.07.2v-.29l1.07-.2ZM451.29,83H451v-.49h.32Zm37-18.81a1.05,1.05,0,0,1,.43-.69c0,.26.07.39.21.39A1,1,0,0,0,488.26,64.18ZM470.9,46.94h.32v.49h-.32Zm.11.69.21.1-.43.78-.21-.1Zm-.54-44.29v.29l.11.29a1.13,1.13,0,0,1-.43.2l-.21-.39C470.22,3.46,470.4,3.33,470.47,3.33Zm-.32,48a.31.31,0,0,0-.21.29,11.07,11.07,0,0,1,.21-1.27Q470.26,51.35,470.15,51.35Zm-.54-48.21a1.93,1.93,0,0,1-.32,1.08.91.91,0,0,0,.54.1,1.31,1.31,0,0,1,.21.78q0,1.18-1,1.18.21,0-1.07-.59Q469,4,469.62,3.14Zm-.32,49.29a2,2,0,0,1,.54-.2,1.51,1.51,0,0,1-.11.39,1.5,1.5,0,0,0-.11.39.59.59,0,0,0-.16-.29A.57.57,0,0,1,469.29,52.42Zm-.32,4a1,1,0,0,0-.43.1.88.88,0,0,1-.32.1,4,4,0,0,1,.32-1c0-.33,0-.7.05-1.13a2.28,2.28,0,0,1,.7-1.32A14,14,0,0,1,469,56.44Zm-1.82,4.31a12.33,12.33,0,0,1,.27-1.42l.38-1.71.86-.78a5,5,0,0,1-.43,1.18,1,1,0,0,0,.11.49,17.33,17.33,0,0,1-1.18,2.74ZM472,63.6a33,33,0,0,1-3.11,1.27c-.29,0-.25-.13.11-.39h-.75c.07-.2.66-.52,1.77-1a8.21,8.21,0,0,1,2.09-.68,2.42,2.42,0,0,1,1.18.29L471,63.6Q471.22,63.89,472,63.6ZM460.51,48.9a2,2,0,0,0,1-.88,1,1,0,0,0-1-.49,2.89,2.89,0,0,0,1.29-2.06c-.21-.26-.36-.39-.43-.39h.75a4.38,4.38,0,0,1,.64-2.45q-.11,1.37-.11,2.16-.54,3.63-.54,3.72a6,6,0,0,0-.64,2.94,1.84,1.84,0,0,1-.43.24,1.39,1.39,0,0,1-.43.15c-.21-.2-.21-.55,0-1.08a6.25,6.25,0,0,0,.32-1.18A.7.7,0,0,0,460.51,48.9Zm2.25,3a2.72,2.72,0,0,0-.43,1.47.9.9,0,0,1-.32-.69C462,52.59,462.26,52.33,462.76,51.93Zm-1.82.49V53h-.32v-.59Zm-2,1.37v-1a8.93,8.93,0,0,0,1-2.45,1.56,1.56,0,0,1,.11.39,16.91,16.91,0,0,1-.32,1.67A2.66,2.66,0,0,1,458.9,53.8Zm.32.1c-.07.26-.18.67-.32,1.23l-.32,1.23c0-.06-.05-.13-.16-.2a.32.32,0,0,1-.16-.29A3.84,3.84,0,0,1,459.22,53.89Zm.32.59h.32v.59h-.32Zm.21-.2.21-.88h.32l-.32.88Zm.43.49.21.1-.21.49-.32-.2Zm.05-2a.7.7,0,0,1-.37.1v-.69q.64,0,.64.49A.55.55,0,0,0,460.24,52.82Zm-.05-2.65h-.32l.21-1.18h.32Zm-8.46,33-.21-.1.21-.59H452Zm.64-4.41-.32-.1.21-.49.32.1Zm.54-10a5.38,5.38,0,0,1,.54-2.84h.75Q453.33,67.81,452.9,68.79Zm3.22-9.8a34,34,0,0,0-1.29,4.9,1.62,1.62,0,0,1-.54.29l-.32.29a7.28,7.28,0,0,1,.43,1.08h-1q1-5.39,2-7.15,0-.29-.32,0a4.9,4.9,0,0,1,.21-1.47l.11-.2a7.21,7.21,0,0,1-.21-.88,1.62,1.62,0,0,0,.64-.1q-.86-.49,0-1.27l.32-.29a.92.92,0,0,0-.32-.1,34.51,34.51,0,0,1,1-3.33q.64-3.62,1.29-4.31c-.29-.26-.43-.46-.43-.59a13.09,13.09,0,0,1,.54-2.06q.64-2.15.86-3a.54.54,0,0,0,.21.39q.53-1.67.75-2.45l-3.43,17.54a3.64,3.64,0,0,0-.64,1.57A4.74,4.74,0,0,0,456.12,59Zm1.18,1.27h.32v1h-.32Zm-.86,1.37-.21-.1.75-2.06h.21Zm2.68-.79c-.29.13-.43.23-.43.29s-.07.46-.21,1.18a4.28,4.28,0,0,0,0,1.37.44.44,0,0,1-.43-.2c-.29.2-.36.43-.21.69a.71.71,0,0,0,.11-.29c.28.2.32.39.11.59h-.64a1.93,1.93,0,0,1,0-.55l-.37.25q0-.68.32-.59v.1c.07-.33-.11-.55-.54-.69v-.69a1,1,0,0,0,.1-.45,2.6,2.6,0,0,0,.44.45,12.87,12.87,0,0,0,.75-1.76,2.71,2.71,0,0,0,.11.88,2.25,2.25,0,0,0,.21-.88,1.94,1.94,0,0,1-.86-.59,1,1,0,0,1,.43.1l.21-.29c0-.06-.13-.16-.38-.29s-.38-.26-.38-.39a2.58,2.58,0,0,1,.43-1.37,8.23,8.23,0,0,1,1-.29c0-.39-.07-.62-.21-.69.21-.06.36,0,.43.1l.54-.49h.64a1.24,1.24,0,0,1-.27.59,1.28,1.28,0,0,0-.27.69v2l-.64-.2Q458.79,60.56,459.11,60.85Zm1.5,1.18c-.21.07-.32.16-.32.29V61.24a.71.71,0,0,0-.54-.88,12.51,12.51,0,0,0,1.29-1,1,1,0,0,0,.11.34,1.35,1.35,0,0,1,.11.54A3.72,3.72,0,0,1,460.62,62Zm1.07-3.63v.78q-.86-.39-1.29,0A14.93,14.93,0,0,1,461.9,57a2.52,2.52,0,0,1-.43-.88,1.36,1.36,0,0,1,.37.1,1.27,1.27,0,0,0,.38.1Zm.43-2.45.11-.29v-.59A.33.33,0,0,0,462,55a1.7,1.7,0,0,0-.21,1h-.64a5.31,5.31,0,0,1,.64-1,.84.84,0,0,1,.86-.29A3.73,3.73,0,0,1,462.12,56Zm1.07-2.55-.54.29a2.93,2.93,0,0,0,.43-1.86A2.38,2.38,0,0,1,463.19,53.4Zm.43-1.86h-.32v-1h.32Zm-.48-2.35a1.37,1.37,0,0,0-.38-.1V48.5a2.74,2.74,0,0,0,.75-1.86,2.64,2.64,0,0,1,.43.5c-.6,1.06-.69,1.78-.22,2.15A1.69,1.69,0,0,1,463.13,49.19Zm1.34-5.68h-.32a9.49,9.49,0,0,1,.21,1.76,1.17,1.17,0,0,0-.43.39v.78a1.3,1.3,0,0,0-.21-.44,1.2,1.2,0,0,1-.2-.49,10.78,10.78,0,0,0,.63-2l.21-.78h.32Zm.11-1.57q.53-2.45.75-3.53a4.12,4.12,0,0,1,.21.88A6.36,6.36,0,0,1,464.58,41.94Zm.32-31.45c-.36-.33-.29-.65.21-1a1.28,1.28,0,0,0,.86.39A4.37,4.37,0,0,1,464.9,10.48ZM465,9.21V8.92h1.07v.29Zm1.39,55.36-.32-.1.21-.59h.32Zm.21-2.15.43-.78.32.1-.43.78Zm1.5,9h-1a2.88,2.88,0,0,0,1.29-.39l.75.29A9.73,9.73,0,0,0,468.12,71.43Zm1.71-1.18h-1.07V70h1.07Zm1-.2h-.54v-.29h-.75v-.29h.75v.29h.54Zm1.07-.44a1,1,0,0,1-.54.24,6.33,6.33,0,0,1-1.07-.49h2.14A1,1,0,0,0,471.87,69.62Zm5-2.4q-1.07.49-1.07.78a.64.64,0,0,1,.43-.2,5.51,5.51,0,0,1-3.32,1.47c-.14,0-.2,0-.16-.15s0-.15-.16-.15H472a5.42,5.42,0,0,1-1,.1q4.82-1.67,7.39-2.65Zm1.61-.78v-.2l.86-.39.11.2Zm-1.34-1.08a23.24,23.24,0,0,1-4.23,1.57c-.14,0-.21,0-.21-.1s-.07-.1-.21-.1a.57.57,0,0,0-.43.29.64.64,0,0,1-.54.29,3.49,3.49,0,0,0-1.07.29.91.91,0,0,0-.32-.69c-.21.07-.54.18-1,.34s-.75.28-1,.34a16.83,16.83,0,0,1,3.86-1.86c.14,0,.18,0,.11.15s0,.15.11.15h.64V64.87a.65.65,0,0,1,.43.2,1.65,1.65,0,0,1,1.5-.78l2.14-.2a1.62,1.62,0,0,0,.54-.29,1.36,1.36,0,0,1,.64-.29l.54.49a2.12,2.12,0,0,0,.43-.49,8.33,8.33,0,0,0,2.79-.49A28.67,28.67,0,0,1,477.17,65.36Zm-3.7-2.65v-.29h.64v.29Zm15.64-11.66.54-.29q-1.61,1.67-2.57,2.65a1,1,0,0,1,.43-.1q-.86.59-.75.59c-.14,0-.18,0-.11-.1v-.2q-2.25,1.18-2.36,1.18v-.88l.43.39c.36-.33.54-.46.54-.39a.55.55,0,0,0-.75,0c0-.59,0-.85.11-.78l3.86-3.23a20.61,20.61,0,0,1,1.55-2,13.36,13.36,0,0,1,1.77-1.52,1,1,0,0,0,.21-.59,9.34,9.34,0,0,0,1.18-.88q-3.11,4.31-4.39,5.88C488.94,51,489,51.05,489.12,51.05Zm6.21-10.58q-1.07,3-1.93,3c-.21,0-.29,0-.21-.1s.07-.23,0-.29l-.32.29.32.59h-.54c-.14.13-.07.2.21.2a23.49,23.49,0,0,1-1.71,2.06,1,1,0,0,1-.21-.29c-.07-.13-.14-.2-.21-.2a1.23,1.23,0,0,0-.64.2,1.86,1.86,0,0,1-.64,1.76q-3.32,3.63-11.57,8.72-4.29,2.16-6.64,3.23l.11.59c.36,0,.39-.16.11-.49l.21.1h.43a14,14,0,0,0,2.57-1,18.41,18.41,0,0,1,2.46-1h.43a1,1,0,0,0,.43.1q1.29,0,5.89-3a1.83,1.83,0,0,0,.75.59c-.21.2-.47.16-.75-.1q-.54.39.21.39a3.49,3.49,0,0,0-.7.54,1.35,1.35,0,0,1-.8.44c-.14,0-.21,0-.21-.1s-.07-.1-.21-.1a5.14,5.14,0,0,0-1.64.93,4.13,4.13,0,0,1,0,.64,1.82,1.82,0,0,1-.43-.1,2.23,2.23,0,0,0-.64-.1,14.78,14.78,0,0,0-1.66.78,16.53,16.53,0,0,1-2.2,1l-2.36,1.18a11.37,11.37,0,0,1-3,1H470c0-.06-.07-.1-.21-.1a1.24,1.24,0,0,1-1.07.39,1.18,1.18,0,0,1,.37-.2,1.31,1.31,0,0,1,.38-.1c-.07-.13-.25-.2-.54-.2v-.49q2.78-9.9,2.89-11.66.86-2.25,1.29-3.53-.11-.19-.21,0,.21-.68,0-.88l-.21-.2a5.38,5.38,0,0,1,.86-2,26.33,26.33,0,0,1,.32-3.23Q476.69,28.61,478,23h1.93a12.72,12.72,0,0,0,2.46.39,22.33,22.33,0,0,1,9.86,3.87q3.64,2.79,3.75,6.22a1.59,1.59,0,0,1,.32.78,48.77,48.77,0,0,1-1.39,5.59,18.09,18.09,0,0,0,1.5-3A15.06,15.06,0,0,1,495.33,40.47Zm7.39,11.86-.11-.29.75-.59.21.29Zm2.89-3.72a22.45,22.45,0,0,1-2.14,2.74,5.34,5.34,0,0,1,1.29-2,.9.9,0,0,1,.32-.54A1.91,1.91,0,0,1,505.62,48.6Z" fill="#000"/><polygon points="468.76 68.4 468.76 68.1 469.19 67.91 469.29 68.1 468.76 68.4" fill="#000"/><polygon points="441.65 74.96 440.9 75.16 440.9 74.96 441.54 74.77 441.65 74.96" fill="#000"/><polygon points="452.15 73.88 451.94 73.78 451.72 74.18 451.94 74.28 452.15 73.88" fill="#000"/><rect x="451.72" y="80.16" width="0.32" height="0.39" fill="#000"/><polygon points="453.65 90.64 453.44 91.03 453.22 90.93 453.44 90.54 453.65 90.64" fill="#000"/><polygon points="470.9 48.9 470.58 48.8 470.37 49.19 470.69 49.29 470.9 48.9" fill="#000"/><polygon points="479.8 68.98 479.04 69.18 479.04 68.98 479.69 68.79 479.8 68.98" fill="#000"/><polygon points="487.83 66.93 487.08 67.12 487.08 66.93 487.72 66.73 487.83 66.93" fill="#000"/><polygon points="489.76 53.6 489.22 53.4 489.12 53.6 489.65 53.8 489.76 53.6" fill="#000"/><polygon points="490.19 50.27 489.87 50.17 489.65 50.56 489.87 50.66 490.19 50.27" fill="#000"/><rect x="510.01" y="33.32" width="0.32" height="0.39" fill="#000"/><path d="M521.69,51.44A42.12,42.12,0,0,1,523,44.19q0-1-.32-1.18-1.29,6.76-1.29,7.25Z" fill="#000"/><path d="M550.4,14.89a20,20,0,0,1,.21-4.41V6.66a1.88,1.88,0,0,1-1.07-1,1.76,1.76,0,0,1-.32-1.18.89.89,0,0,0-.32.1,1.29,1.29,0,0,1-.54.1c-.29,0-.64-.34-1.07-1a3.54,3.54,0,0,1-.64-1.42c0-.33,0-.52.11-.59q1.07.49.86,1.27l.75-.49a9,9,0,0,0-4.07-2c.36.26.39.52.11.78-.14-.26-.79-.54-1.93-.83A11.42,11.42,0,0,0,539.9,0q-.32,0-4.71.88c-.12.3-.21.51-.28.66a.86.86,0,0,1,.38-.07,1.31,1.31,0,0,1,.54.1.64.64,0,0,0-.32.34,1.06,1.06,0,0,1-.21.34c.5,0,.75.13.75.39l-.54.49a.87.87,0,0,0,.32-.1,1.31,1.31,0,0,1,.54-.1q.32,0,.75.49c0-.39.18-.59.54-.59a2.4,2.4,0,0,1-1.39-.39,4.64,4.64,0,0,0,1.5-1.37A10.43,10.43,0,0,1,539,2.25a1.59,1.59,0,0,0-.64-1.08,1.68,1.68,0,0,0,.27-.39,1.64,1.64,0,0,1,.27-.39,1.09,1.09,0,0,0,.54.2L539.9.2a1.35,1.35,0,0,1,.64,1.08c.14.52.14.85,0,1,.5,0,.75.1.75.29a8,8,0,0,0-1.82.68,2.19,2.19,0,0,1-.64-.1,2,2,0,0,0-.43-.1c-.36.65-.68,1-1,1s-.32,0-.32-.1-.11-.1-.32-.1a2.81,2.81,0,0,0-2,.88q-.91.88-1.23,1.27a2.56,2.56,0,0,0-1-.59,2,2,0,0,0-1.93,1.08,1.39,1.39,0,0,1-.21-.27l-.19.94a.68.68,0,0,1,.08.31,7.78,7.78,0,0,1-.11.88v.29l.75.1a9.41,9.41,0,0,1-1.28,1.11,125.34,125.34,0,0,1-3,12.54h0a9.06,9.06,0,0,1,1-.15,3.48,3.48,0,0,1-.43,1.27h-.86v-.37A6.81,6.81,0,0,1,525.26,25a2.47,2.47,0,0,1,1.14.9,3.1,3.1,0,0,1,1-.44c.54-.16.87-.18,1,0L525.65,35a47.16,47.16,0,0,0-1.82,10.09q-.43,3.43-.64,5.1a3.18,3.18,0,0,1-.86.49,6.2,6.2,0,0,1-.43,2.45l-.5-.45a16.09,16.09,0,0,1-.47,2,2.72,2.72,0,0,1,.75-1.08,2.57,2.57,0,0,1-.11,2.15,7.31,7.31,0,0,0,.86-.88c.14.13.18.23.11.29q.43,3,.43,2.45a4.59,4.59,0,0,1-.11,1.37,2,2,0,0,0-.64.68c-.36-1-.57-1.53-.64-1.67a4.16,4.16,0,0,0,1.18-1.27,1.61,1.61,0,0,0-.54-.29,1.1,1.1,0,0,0-1.07,1.27q.11,1.47-.21,1.76a.29.29,0,0,1-.21-.15.51.51,0,0,0-.43-.15q-1,0-1.39,1.76c0-.13.07-.2.22-.2s.3,0,.27.1,0,.1.16.1.36-.16.43-.49a4.54,4.54,0,0,0,.11-.59,1.29,1.29,0,0,1,.86.39,2.57,2.57,0,0,0,.43,1.37l-.54.49a6.82,6.82,0,0,1,0,2,41.91,41.91,0,0,0,.54,10q1.18,4.31,1.18,3.43c0,.39,0,.62-.11.69a4.34,4.34,0,0,0-1.5-.39,1.44,1.44,0,0,1-.21.59.92.92,0,0,1,.64-.2q1.5,0,2.68,4t2.25,4a1.86,1.86,0,0,0,.75-.2V83.19a1.54,1.54,0,0,0,1.07-.39,1.72,1.72,0,0,1,.11,1c-.36,1.24-.54,1.7-.54,1.37q0,.68,1.29,1.18c-.36-.07-.47-.52-.32-1.37a16.05,16.05,0,0,1,2.14,2.84,4.91,4.91,0,0,1,.75-1.08,2.82,2.82,0,0,0,.64-1,7.87,7.87,0,0,0-.32-1.27A2,2,0,0,1,532,82.8a4,4,0,0,1,1,1.27,1.49,1.49,0,0,1,.43-1,5.7,5.7,0,0,0-1.61-3.23l.43-.29c.07,0,.11-.1.11-.29a.53.53,0,0,1,.11-.39A4.79,4.79,0,0,1,534.33,82a5.06,5.06,0,0,0,1.61,3l.75-.68q0-.1-.75-3.23a8.76,8.76,0,0,1-.22-3.23c.07,0,.25.13.54.39-.21.33-.14.75.21,1.27l.86,1.27a1.58,1.58,0,0,1,.75.49,2.69,2.69,0,0,0,.43,1.18q1,1.08,1,1a.54.54,0,0,1,.21-.39A5.23,5.23,0,0,1,542,84.47a4.15,4.15,0,0,0-.05-.94c.17-.16.27-.28.27-.33A9.17,9.17,0,0,0,544,85,19.63,19.63,0,0,1,542.26,77q-1.61-4.31-2.36-6.47l.32-1.47a2.36,2.36,0,0,0-.86-.69A12.92,12.92,0,0,1,539,66a21.93,21.93,0,0,1-.32-3,.33.33,0,0,0-.21-.1c-.07,0-.11-.13-.11-.39q0,.1.64-.78a7.83,7.83,0,0,1-.11-2.84q1-3.43,1.61-5.19l1.29-9.7a6.36,6.36,0,0,1,.64-1.76Q543,38.8,543.87,35q1.18-.19,1.71-2.16.21-1.47.43-2.94.64-3,1-4.7c-.1-.37-.19-.57-.25-.61.37-.09.55-.42.52-1a3,3,0,0,1,.05-1.13,4.13,4.13,0,0,0,1.5-2.84,2.66,2.66,0,0,1-.32-1.47h.75a2.25,2.25,0,0,1,.38-1.76,6.69,6.69,0,0,0,.59-1.08c-.14-.06-.21-.29-.21-.69A.57.57,0,0,1,550.4,14.89ZM529,24q0,.49-.86-.29l-.54.49a1.59,1.59,0,0,1,.64-1.08c0-.2-.14-.29-.43-.29V22a7.09,7.09,0,0,0,2-1.08A14.76,14.76,0,0,0,529,24Zm.64-5.19-.32-.2.64-.59.21.29Zm2.46,30.28q.21.29-.11,1.47a4.32,4.32,0,0,1-.32-.49C531.51,49.81,531.65,49.48,532.08,49.09Zm-.21,2.35.86,2.94-.64.49c0-.39,0-.62.11-.69a1.25,1.25,0,0,1-.86-1.18A4.15,4.15,0,0,1,531.87,51.44ZM537,37.92a19.9,19.9,0,0,1-.86,3.23q-1.18,6.47-1.29,7.15a6.23,6.23,0,0,1,.11,1.08q-.64,3.82-1.39,7.54a1.64,1.64,0,0,0-.86.49v2.45c.07.13.25.2.54.2a1.48,1.48,0,0,0,.24-.67,9.69,9.69,0,0,1,.08,1.35l-.54-.49a4.33,4.33,0,0,1-1.5,1.08q-.11-3.62,0-5.78a1,1,0,0,1,.43-.49,5.71,5.71,0,0,1,.64,1.57,3.39,3.39,0,0,0,.75-2.55,13.66,13.66,0,0,1,0-2.74,20.78,20.78,0,0,0,.32-3.72,1.24,1.24,0,0,0,.86-.88q2.36-11.17,3.32-13ZM541.62,4h-1.07a1.09,1.09,0,0,1-.43-.78,2.65,2.65,0,0,0,1.29-.29l.54.59Q541.62,3.82,541.62,4ZM546,2.55h-.43V1.47H546Z" fill="#000"/><path d="M557.15,66.83a52.14,52.14,0,0,1-.43-6.86,28.54,28.54,0,0,1,.54-5.68q1.18-4,1.93-6.07.54-1.37.86-2.06a.67.67,0,0,1,.43-.1v-.49a.63.63,0,0,1-.43-.2c.57-.46,1-.78,1.18-1V43.9c-.21,0-.32-.06-.32-.2a.38.38,0,0,1,.43.1,1,1,0,0,0-.11-.49,1.28,1.28,0,0,1,.86-.39q1.07-2.06,2.57-4.51a.6.6,0,0,1-.32-.2,3.69,3.69,0,0,0,.83-.47,3.19,3.19,0,0,1-.08-.31c.07-.33.21-.49.43-.49s.07.07,0,.2,0,.1.11.1q.75,0,.43-.88a2.57,2.57,0,0,0,.64-.39.49.49,0,0,1-.43,0,1.55,1.55,0,0,0,.21-.25,1.66,1.66,0,0,1,.22-.24c.07.13.14.2.21.2s.36-.26.64-.78c-.21.33-.39.49-.54.49a9.65,9.65,0,0,1,1.39-1.86.89.89,0,0,1-.54-.29,30.2,30.2,0,0,0-4.39,4.51A33.07,33.07,0,0,0,561,41.25q-4.82,8-5.36,14.5a6.36,6.36,0,0,1-.11.93c-.07.43-.11.67-.11.74v5a23,23,0,0,0,.75,5.49,8.67,8.67,0,0,0,.75,1.67,5.24,5.24,0,0,0,.75-1,3.52,3.52,0,0,0-.27-.88A3.36,3.36,0,0,1,557.15,66.83Z" fill="#000"/><path d="M608.37,42.92a8.06,8.06,0,0,0-.59-2.16,3.77,3.77,0,0,0-.59-1q-.32-1.86-.43-2.84c0,.85-.14,1.27-.43,1.27a3.63,3.63,0,0,0-.43-1.08A15.66,15.66,0,0,0,605,33c.14,0,.21-.23.21-.69a.53.53,0,0,1-.11.39,1.72,1.72,0,0,1-.64-1.27c0,.33.18-.06.54-1.18v-.59l-.64-.39q-1.5-.19-1.18-.2c-.14,0-.21,0-.21.1h-.21q-.32,0-2.25-2.84L598,25.18a.32.32,0,0,1,.22-.1c0-.33-.11-.52-.32-.59l-.43.29-.53-.18c0,.07.11.19.31.37h-.43l-2.89-2h-.11c0,.07-.07.1-.21.1a2.21,2.21,0,0,1-1.18-.59c.71-.59,1.07-.95,1.07-1.08q0-.49-.7-1a2.18,2.18,0,0,0-1.12-.49,7.83,7.83,0,0,1-3.86,1.67,4.08,4.08,0,0,1-1.07-.1c0-.33.07-.52.21-.59h-.21l-.32.29-.21-.29a7.51,7.51,0,0,0-4.5,2.74c-.21-.33-.14-.77.21-1.32a2.27,2.27,0,0,1,1.18-1l.43.29c0-.2.14-.29.43-.29l.32-.29-.32-.39a4.7,4.7,0,0,0-2.25.93q-1.18.83-2.25,1.71.53-1.37.75-2a1.78,1.78,0,0,1-.75.49l-.32-.2q-.86,1.28-1.39,2a21.42,21.42,0,0,1-1.61,2.74,1.23,1.23,0,0,0-.64-.39q-1,0-3.32,4a1.27,1.27,0,0,1-1,.69,4.18,4.18,0,0,1-1.39,1.27q1.28-.88,1.5-1.08l.21.2a9.87,9.87,0,0,1-2.36,2.25l1.18-.78c.14.07.18.13.11.2a17.41,17.41,0,0,1-3.32,4.8q-3.54,3.72-3.75,3.92a4.93,4.93,0,0,0-.21,1.18,11.28,11.28,0,0,0-1.93,2.65q-1.93,4.8-2.46,6.08-.32,1.76-.54,2.74t-.38,1.62a17.62,17.62,0,0,0-.32,2.15q-.16,1.52-.16,1.71,0,1.08.21,3.23c.21.72.39,1.27.54,1.67a1.47,1.47,0,0,0,.22-.69,2,2,0,0,1-.16-1.42,2,2,0,0,0-.16-1.42c-.07-.13,0-.29.22-.49.07,0,.18.1.32.29q.32,3.63.75,6.66a2.17,2.17,0,0,1,.43.49,1,1,0,0,1-.43.1q.75,2.35,1.07,3.63a1.05,1.05,0,0,1,.86.39q4.29,5.09,4.29,5.19a.38.38,0,0,1-.11.29h-.64a1.45,1.45,0,0,1-1.07-.69.53.53,0,0,0-.21-.59h-.11c-.36-.13-.61-.1-.75.1a13.71,13.71,0,0,0,2.36,2l.54-.1q1,0,3.11,1.67a4.1,4.1,0,0,1-1.18.2A15.29,15.29,0,0,1,565,78.78a15.2,15.2,0,0,0-2.41-1.27h-.11c0,.06-.07.1-.22.1q.32,0-1.18-.69a1,1,0,0,0,.09.55.86.86,0,0,0-.84,0,28.92,28.92,0,0,0,8,4.31,24.5,24.5,0,0,0,8.3,1.76,13.89,13.89,0,0,0,1.34-.39,12.87,12.87,0,0,1,1.34-.39h.21a8.67,8.67,0,0,0,1.61.1,7.33,7.33,0,0,0,1.45-.24,3.59,3.59,0,0,1,1.45-.15q3.54-1.37,7.18-6.37a.9.9,0,0,0,.32.1,3.57,3.57,0,0,1,.32-1.08v.59q1.07-1.27,1.5-1.76,3.43-3.53,5.46-5.59,1.18-1,1.82-1.47A31.44,31.44,0,0,0,607,53.4l1.5-9.8A3.84,3.84,0,0,1,608.37,42.92ZM591.12,28a.78.78,0,0,1-.75.39c.28.26.46.39.54.39-.29,0-.43,0-.43-.1l-.32.29a2.11,2.11,0,0,0-1.18-.68h-.24a2.33,2.33,0,0,1,1.1-.39Zm-2.36,6.37h.86a1,1,0,0,0-.21.39h-.86Zm-1.5.39h1V35h-1Zm-11.79-6.86c.5-.46.86-.69,1.07-.69,0,.2.18-.13.54-1a.59.59,0,0,0,.32.2A12.21,12.21,0,0,1,575,29.1q.64-1,.75-1A.35.35,0,0,0,575.47,27.93ZM563,48.11a11.5,11.5,0,0,1,1.39-3.23h.22Zm28.72,5.78a34.92,34.92,0,0,1-4.39,6,8.64,8.64,0,0,0-1.07,1.57Q584.9,63.6,584,64.67a24.42,24.42,0,0,0-2.79,2.74,25.74,25.74,0,0,1-4.18,2.94,7.89,7.89,0,0,1-2.79.88c-.36.26-.61.46-.75.59a4.49,4.49,0,0,1-1.5.2,21.36,21.36,0,0,0-2.47-.59,7.27,7.27,0,0,0-1.39-1.18c0-.06.14-.23.43-.49-.07-.06-.21,0-.43.2a2.37,2.37,0,0,1-.64-.78c-.07-.2-.18-.29-.32-.29a18,18,0,0,1-1.5-6.27,4.07,4.07,0,0,1,.11-1.67,8,8,0,0,1-.32-2.06l.32-.39q.21-3.13.32-4.8c0,.07.11.1.32.1l1-.2q0,.39.11,1.86c.07.72.11,1.34.11,1.86a4.73,4.73,0,0,1,.54.2c.14-.33.25-.56.32-.69a7.6,7.6,0,0,0,.54,2.74h.11q.21-2.06.32-3.14c.07,0,.11-.16.11-.49V53a1,1,0,0,1,.54,1.08,1,1,0,0,1-.21-.29q-.11.1.32.59a17.72,17.72,0,0,0,0,2.84.27.27,0,0,0,.11-.2,5.53,5.53,0,0,0,.32.88,4.31,4.31,0,0,1,.16,1.23,2.11,2.11,0,0,0,.59,1.52q.32-.19.21-1a1.18,1.18,0,0,1,.43.2,16.68,16.68,0,0,1-.21-2,2.55,2.55,0,0,1,.16-.54,2.24,2.24,0,0,0,.16-.74q.21,2.06.54,2.25l.22-.1V56.24c0,.26.11.39.32.39-.14.13-.14.33,0,.59a.84.84,0,0,0,.21-1,1.19,1.19,0,0,0,.37-.29,5.19,5.19,0,0,0,.22-.69,3.71,3.71,0,0,0,.16-.88,28.61,28.61,0,0,1,.32,3.53,2.9,2.9,0,0,1,.32-.39q0,.2.11-4.7v-.88a4.39,4.39,0,0,0,.86-.39c-.14-.26-.32-.36-.54-.29q.21-.29.43-.1v-.78c0,.07-.14.23-.43.49v-.49a3.46,3.46,0,0,0,.64-.2,3.19,3.19,0,0,0,.43.49c.07-.06,0-.2-.21-.39V49a.47.47,0,0,1,.32.1l.21-.2q-.64-1,1.29-4.41c-.07.78-.14,1.41-.21,1.86q-1.29,7.25-1.29,7.64v.49c.57-.33.82-.65.75-1a6.35,6.35,0,0,0,.32-1c.14-.55.28-.83.43-.83s.22,0,.22.1,0,.1.11.1a1.58,1.58,0,0,0-.11-.39q1.07-4.21,1.71-6.57a12.24,12.24,0,0,1,.54-1.18v-.49l-.22-.29q-1,.59-1.5.88a.64.64,0,0,0-.28-.54,2.73,2.73,0,0,0,.28-.63q.75-2.74,1.61-3l-.32-.2a.44.44,0,0,1,.43-.2l.11-.2a1.7,1.7,0,0,1,1.07-1q.75-.24,1.5-.54a.28.28,0,0,0-.11-.2,3.78,3.78,0,0,0-1.39.59.81.81,0,0,1,.11-.39,10.32,10.32,0,0,1,5.25-1.67,2.79,2.79,0,0,1,.7.15,2.76,2.76,0,0,0,.7.15.62.62,0,0,0,.54-.39.39.39,0,0,0-.11-.29c1.5.52,2.25.88,2.25,1.08a.91.91,0,0,1-.21.49.63.63,0,0,0,.43.2,6.15,6.15,0,0,0,1.5-.78v-.49a1.79,1.79,0,0,0-.75-.49.33.33,0,0,1,.21.1h.32a.67.67,0,0,0,.43-.1,6.32,6.32,0,0,1,.21,1.37l.11.1.43-.29a2,2,0,0,0,.38.24c.18.1.27.18.27.24a1.52,1.52,0,0,1-.54.59A1,1,0,0,0,594,38h-.11a.47.47,0,0,0-.32-.1q.32,0-.75.49l.22.2a.31.31,0,0,0,.21-.29,1.73,1.73,0,0,0,1.39,0,2.42,2.42,0,0,1,.43,2,.8.8,0,0,0,.16.34,1,1,0,0,1,.16.54A.87.87,0,0,1,595,42a.31.31,0,0,0,.21.1q-.22,2.45-.54,2.55c0,.13.14.2.43.2a2.28,2.28,0,0,1-.43.59,19.82,19.82,0,0,1-.32,2.45q-1,2.26-1.5,3.43a.27.27,0,0,0,.11.2A13.28,13.28,0,0,1,591.76,53.89Zm1.77,18.72s0,0,0,0Zm10.12-16.46h-.32l.22-.69h.21Z" fill="#000"/><polygon points="558.33 70.36 558.12 70.36 557.9 70.06 558.12 69.96 558.33 70.36" fill="#000"/><polygon points="558.65 71.04 558.44 71.04 558.22 70.65 558.44 70.55 558.65 71.04" fill="#000"/><polygon points="558.76 65.95 558.54 65.95 558.33 65.56 558.54 65.56 558.76 65.95" fill="#000"/><polygon points="558.87 66.44 558.65 66.44 558.54 66.14 558.76 66.05 558.87 66.44" fill="#000"/><rect x="560.47" y="55.46" width="0.21" height="0.69" fill="#000"/><polygon points="561.54 72.81 561.33 72.51 561.22 72.71 561.44 72.9 561.54 72.81" fill="#000"/><polygon points="564.87 44.39 564.65 44.29 564.44 44.68 564.65 44.78 564.87 44.39" fill="#000"/><polygon points="567.22 58.7 567.01 58.7 566.79 58.4 567.01 58.3 567.22 58.7" fill="#000"/><polygon points="567.65 64.87 567.54 64.67 567.22 64.87 567.22 65.06 567.65 64.87" fill="#000"/><polygon points="567.97 67.03 567.76 67.03 567.54 67.32 567.76 67.42 567.97 67.03" fill="#000"/><rect x="568.19" y="56.15" width="0.21" height="0.49" fill="#000"/><polygon points="568.72 60.85 568.51 61.15 568.29 61.15 568.51 60.75 568.72 60.85" fill="#000"/><polygon points="569.69 69.77 569.58 69.87 569.37 69.67 569.47 69.57 569.69 69.77" fill="#000"/><rect x="569.69" y="58.3" width="0.22" height="0.49" fill="#000"/><polygon points="570.44 59.48 570.33 59.38 570.01 59.67 570.12 59.87 570.44 59.48" fill="#000"/><polygon points="574.51 29.98 574.3 30.38 574.08 30.28 574.3 29.89 574.51 29.98" fill="#000"/><polygon points="575.58 54.58 575.37 54.97 575.15 54.87 575.37 54.48 575.58 54.58" fill="#000"/><polygon points="576.12 54.28 575.9 54.68 575.69 54.58 575.9 54.19 576.12 54.28" fill="#000"/><polygon points="576.33 51.64 576.12 51.64 575.9 52.13 576.12 52.23 576.33 51.64" fill="#000"/><rect x="575.9" y="53.01" width="0.22" height="0.39" fill="#000"/><polygon points="577.72 26.07 577.51 25.97 577.4 26.36 577.62 26.36 577.72 26.07" fill="#000"/><rect x="578.26" y="43.7" width="0.21" height="0.49" fill="#000"/><rect x="583.2" y="37.08" width="0.61" height="0.22" transform="translate(53.57 284.23) rotate(-28.64)" fill="#000"/><polygon points="584.58 36.84 584.15 37.04 584.15 36.84 584.48 36.65 584.58 36.84" fill="#000"/><polygon points="589.51 20.58 589.3 20.68 589.08 20.48 589.3 20.38 589.51 20.58" fill="#000"/><rect x="591.44" y="23.32" width="0.43" height="0.29" fill="#000"/><polygon points="592.94 72.41 592.62 72.9 592.4 72.81 592.72 72.31 592.94 72.41" fill="#000"/><path d="M597.23,22.83a.28.28,0,0,0-.11.2c0-.26-.14-.39-.43-.39C597,22.64,597.23,22.7,597.23,22.83Z" fill="#000"/><rect x="599.37" y="64.57" width="0.21" height="0.39" fill="#000"/><path d="M601.08,26.65a.72.72,0,0,1,.11-.29v-.2h.32l.21.1C601.73,26.33,601.51,26.46,601.08,26.65Z" fill="#000"/><path d="M234.39,170.15l-.75.2V170l.64-.19Zm77.21-32.06c0,.13,0,.52-.11,1.17s-.11,1.1-.11,1.36c-.28,0-.43.1-.43.29a23.46,23.46,0,0,0-.53-5.36l-.32-.29c-.07.07-.11.33-.11.78a8.56,8.56,0,0,0-.32-1.85,1,1,0,0,0-.75-.39c.36-.26.53-.45.53-.58a.72.72,0,0,0-.27-.54,1.33,1.33,0,0,1-.37-.54c-.43,0-.64,0-.64-.1a3.26,3.26,0,0,1,.32.39q-.11-.29-.32,1.17a14.56,14.56,0,0,0,.11,1.46,1.15,1.15,0,0,1,.43-.2q0-.39.32.58c0,.2,0,.75-.11,1.66a1.21,1.21,0,0,0,.53,1.17.41.41,0,0,1-.53,0,.94.94,0,0,0,.21,1.17q-.11.49-.43,1.66-.64,1.75-.64,1.46,0,.1-1.17,2.24a41.24,41.24,0,0,1-3,4.29.66.66,0,0,0,.43.1,1.56,1.56,0,0,0,.53-.34,1.25,1.25,0,0,1,.64-.34,1.06,1.06,0,0,1,.21.39,1,1,0,0,0,.21.39.69.69,0,0,0-.64.39q-.64,1.07-2,3.22-.85.78-2.45,2.53a4.21,4.21,0,0,0-.53,1.36q-.53.49-1.39,1.36a28.87,28.87,0,0,1-5.44,4.58q-1.39.78-13.12,6.63c.07-.32-.14-.49-.64-.49a1,1,0,0,0-.43.1H279a5.4,5.4,0,0,0,.75-.49q.53-.39.64-.49l-.21.29c.36.33.57.49.64.49a37.85,37.85,0,0,0,4.59-2.14l-.53-.49a2,2,0,0,0-.53.1h-.43q.75-.29,2-.88a3.5,3.5,0,0,0-.75.68c-.14.07-.07.1.21.1a2.43,2.43,0,0,0,1.28-.78.92.92,0,0,0-.53-.1,2.19,2.19,0,0,1,1.07-.93,5.28,5.28,0,0,1,1-.44,1,1,0,0,0-.64-.29,3.92,3.92,0,0,0-1.33.39,11.48,11.48,0,0,0-2.29,1.46.66.66,0,0,0,.43.1c-.07,0-.16.08-.27.24a.54.54,0,0,1-.48.24c-.14,0-.21-.06-.21-.2a.12.12,0,0,0,0-.2l-5.65,2.83V169c-.07.07.09.1.48.1s.59,0,.59.1c-.21.07-.62.16-1.23.29l-1.33.29c.36-.2.78-.45,1.28-.78a.93.93,0,0,0-.64-.2,7.81,7.81,0,0,0-2.56,1.46,1.07,1.07,0,0,0-.75-.29,20.47,20.47,0,0,0-5.33,1.66.44.44,0,0,0,.43.19,34.19,34.19,0,0,1,3.31-1,4.88,4.88,0,0,1-3,1.66q-2.13.49-4.16.88-1.07,2.73-2.88,7.89-.53,1.95-1.71,5.65l-.32-.19a20.86,20.86,0,0,1,.21-2.44q.74-2,2.13-5.94a1,1,0,0,0-.32-1,1.7,1.7,0,0,0,.21-1,2.22,2.22,0,0,1,.32-.78c-.36-.26-.5-.39-.43-.39-.21.52-.46,1.07-.75,1.66q-.85,1.56-1.39,1.56a1.21,1.21,0,0,1-.64-.39q-2.13,5.85-3,5.85l-.43-.39a3.48,3.48,0,0,0-.21,1.36q-.85,1.66-2.35,5.16.85-4.19,1.71-7.11c-.07,0-.13,0-.16-.15a.73.73,0,0,1-.05-.24,8.4,8.4,0,0,0-1.17,1.56.9.9,0,0,0-.32-.68,6.11,6.11,0,0,0-1.28,2.14,17.47,17.47,0,0,1-1.07,2.34,5,5,0,0,0-1.17.39v-.88a1.76,1.76,0,0,1,.27-.68,5,5,0,0,0,.37-.83,3.48,3.48,0,0,1,.53-.93q-.32-.1-.64-1.07a2.09,2.09,0,0,0-.43,1,2.83,2.83,0,0,0-.64.49c0,.13-.14.78-.43,1.95-.28-.46-.32-.78-.11-1a.67.67,0,0,0-.27-.15.92.92,0,0,0-.27,0,.37.37,0,0,0-.11.29q0-.2,1.39-4.48a19.3,19.3,0,0,0,1-5.26.63.63,0,0,0-.43.2q-.64,2.53-1.92,7.7a51.39,51.39,0,0,1,1.39-6.53h-.75l.32-.58v-.58l-8,.58a19.33,19.33,0,0,0,2.77-.58q-2.13,0-6.51.29l11.41-1.66c.36-.2.53-.36.53-.49a12.61,12.61,0,0,0-3.63.2,37.65,37.65,0,0,1-3.95.58h-.75l8.32-1.66a7.13,7.13,0,0,1,.43-1.07q-1.49.1-4.48.34t-4.48.34l3.63-1.07c.14,0,.21,0,.21.1h.11a3.52,3.52,0,0,0,1.81-.58,1.17,1.17,0,0,0-.43-.2q-.11,0-3.2.58-3.41.68-4.91.88l-1-.2c.28-.06.71-.2,1.28-.39a1.54,1.54,0,0,0-.75-.1q4.26-.88,12.58-2.92a7.8,7.8,0,0,1,.64-1.56v-.49c.07-.06,0-.1-.32-.1a10.69,10.69,0,0,0-1.28.44,9.82,9.82,0,0,1-1.81.54q-3.2.59-12.37,1.85c0,.07.18-.06.53-.39a1.29,1.29,0,0,0-.53-.1,3.37,3.37,0,0,0,.75-.1h.75c.14,0,.18-.1.11-.29a20.74,20.74,0,0,1,3.63-.58l8.85-2.24c.07.13.25.2.53.2q1.38,0,1.6-1.07,2.66-11.59,8.21-34.49.75-1.66,2.13-5.36.21-.78,1.17-4.19a2.4,2.4,0,0,0-1.49-.49,13.12,13.12,0,0,0-1.44.24,11.33,11.33,0,0,1-1.55.24H257q.32-.39,0-.68a7.8,7.8,0,0,0-.75-.78,10.7,10.7,0,0,0,1.12-.1c.53-.06.87-.1,1-.1a1.68,1.68,0,0,0,.75-.39.72.72,0,0,0-.11-.29,1,1,0,0,1-.85.39,10.08,10.08,0,0,0-1.49-.78l.43-.78a7.4,7.4,0,0,0,.43-.88,1.27,1.27,0,0,0,1.28.68q.32,0,1.07-.88l-.43-.29q-.32-.1-.64.49-.53-.88-1.17-.88a.81.81,0,0,0,.11-.39.47.47,0,0,0-.32-.1q-1,0-1.6,1.66a1.74,1.74,0,0,1-.53-.49,1.67,1.67,0,0,0-.43.29q-.11.78-.43,2.63a2.79,2.79,0,0,0-.48.1,2.47,2.47,0,0,1-.59.1v-1.85a1.34,1.34,0,0,0,.32-.88h.75q0-.1-.48-.49t-.48-.58a3.33,3.33,0,0,1,.91-1.46q.9-1.07,1.44-1.07a4.84,4.84,0,0,1,.85.15,4.74,4.74,0,0,0,1,.15l-.64.49.32.29a2.79,2.79,0,0,1,.53-.78,13.05,13.05,0,0,0,1.6-.78q.21-.09-.11-.29,1.49-.68,1.17-.68a3.46,3.46,0,0,1,1.07.29l.43-.39a1.77,1.77,0,0,0-1.71-.78,6.17,6.17,0,0,0-1.39.1.3.3,0,0,0,.11-.49c-.57.33-.75.55-.53.68h-.64a1,1,0,0,1-.21-.58c0-.26.34-.58,1-1s.94-.75.8-1.07a2.26,2.26,0,0,0,1.07.58,3.66,3.66,0,0,0,.91-.24,3.75,3.75,0,0,1,.91-.24,3.24,3.24,0,0,1,.64.1,3.12,3.12,0,0,0,.64.1q1.06,0,1.28-.29.64-1.66,1.17-3.21a5.29,5.29,0,0,1,2.88-2.92,2.42,2.42,0,0,0,.32,1.17,3.64,3.64,0,0,0,.53-1.07l.32.39a7.56,7.56,0,0,1,1.81-.49,3.81,3.81,0,0,1-.53,1.27c.14-.06.39.13.75.58.07-.32.48-.57,1.23-.73a9.8,9.8,0,0,0,1.33-.34q.42-.78,1.39-2.24a5,5,0,0,0,.69-.15,4.05,4.05,0,0,1,.8-.15,5.08,5.08,0,0,1,1.39.88,14.56,14.56,0,0,0-.53,3.6q.53,1.07,1.28,3,3.2,1,9.81,2.63a33.22,33.22,0,0,1,5.65,2.24,1.69,1.69,0,0,0,.85.29,13.93,13.93,0,0,0,3.52,3.12,2,2,0,0,0,1,1.27,1.38,1.38,0,0,0,.32-.49c.07,0,.2.08.37.24l.48.44c0,.13-.18.39-.53.78,0-.2.18,0,.53.68l.75-.1a7.27,7.27,0,0,0-.43-.88,12.36,12.36,0,0,1,1.17,1c-.64,0-1,.13-1,.39q0,.68.53.68a.7.7,0,0,0,.37-.1.71.71,0,0,1,.37-.1q.75,0,2.13,2.09a19.28,19.28,0,0,1,1.6,2.68,19.13,19.13,0,0,1,.53,1.95.42.42,0,0,1-.11.49,6.14,6.14,0,0,1,2.13,1.17A19.67,19.67,0,0,1,311.6,138.09Zm-75.08,39.36H236v-.29h.53Zm3.95-1.75-.75.2v-.2l.64-.2Zm5.76-2.63v-.29h-.53v.29Zm2.56,3.22V176l-2.56.39v.19Zm-1.28-3.6v-.29l-.64.2v.29Zm.43,12.08-.53,2.44h-.32l.64-2.44Zm-.32,3.12h-.32l-.21-.39.32-.1Zm.85-15.2v-.29h-.75v.29Zm1.28-.29v-.29l-1.07.19v.29Zm.32,11.3v-.49h-.32v.49Zm.75-.49h-.32l-.21.58.21.1Zm.11-8.57-.21-.1-.21.39.21.1Zm-.11,6.63v-.39h-.32v.39Zm.53-2.24-.32-.1-.21.49.32.1Zm1.6-12.28h-.75a5.34,5.34,0,0,0-.53,2.83Q252.09,168.59,252.95,166.74Zm-.53,24.55-.21.39-.21-.1.21-.39Zm6.4-51.64q-.21.78-.75,2.44a.54.54,0,0,1-.21-.39q-.21.88-.85,3a13,13,0,0,0-.53,2c0,.13.14.33.43.58q-.64.68-1.28,4.29a34.38,34.38,0,0,0-1,3.31.91.91,0,0,1,.32.1l-.32.29q-.85.78,0,1.27a1.61,1.61,0,0,1-.64.1,7.2,7.2,0,0,0,.21.88l-.11.19a4.89,4.89,0,0,0-.21,1.46q.32-.29.32,0-1.07,1.75-2,7.11h1a7.35,7.35,0,0,0-.43-1.07l.32-.29a1.62,1.62,0,0,0,.53-.29,33.71,33.71,0,0,1,1.28-4.87,4.73,4.73,0,0,1-.11-1.17,3.61,3.61,0,0,1,.64-1.56Zm-5.23,23.68-.21.49-.32-.1.21-.39Zm2.35-3h-.21l-.75,2,.21.1Zm3.09-3.12h-.64l-.53.49c-.07-.13-.21-.16-.43-.1.14.07.21.29.21.68a8.15,8.15,0,0,0-1,.29,2.55,2.55,0,0,0-.43,1.36c0,.13.12.26.37.39s.37.23.37.29l-.21.29a1.06,1.06,0,0,0-.43-.1,1.92,1.92,0,0,0,.85.59,2.22,2.22,0,0,1-.21.88,2.7,2.7,0,0,1-.11-.88,12.85,12.85,0,0,1-.75,1.75c-.36-.33-.5-.49-.43-.49a1,1,0,0,1-.11.49v.68c.43.13.6.36.53.68v-.1c-.21-.06-.32.13-.32.58l.43-.29c-.07-.06-.11.13-.11.58h.64c.21-.2.18-.39-.11-.58a.72.72,0,0,1-.11.29.48.48,0,0,1,.21-.68.44.44,0,0,0,.43.19,4.27,4.27,0,0,1,0-1.36c.14-.71.21-1.1.21-1.17s.14-.16.43-.29q-.32-.29,0-1.46l.64.2v-1.95a1.27,1.27,0,0,1,.27-.68A1.24,1.24,0,0,0,259,157.19Zm-2.67,4.87v-1H256v1Zm.53-44.23a4.8,4.8,0,0,1-.75.19l.64-.58C256.79,117.7,256.82,117.83,256.89,117.83Zm-.21,45.6h-.32v-.49h.32Zm.85-3.41q.1,0-.43-.49-.53.49-.43.49.11-.49.43-1.46c.28.26.43.45.43.58Zm.43-5.26a3.82,3.82,0,0,0-1,1.95.32.32,0,0,0,.16.29c.11.07.16.13.16.19l.32-1.22Q257.85,155.14,258,154.75Zm.75-3.12a1.54,1.54,0,0,0-.11-.39,8.82,8.82,0,0,1-1,2.44v1a2.65,2.65,0,0,0,.75-1.36Q258.6,152.42,258.71,151.64Zm-.11,4.29v-.58h-.32v.58Zm.21-39.07a.9.9,0,0,0-.21-.68,3.54,3.54,0,0,0-.21.49A1.17,1.17,0,0,0,258.81,116.85Zm.21,37.41h-.32l-.21.88h.21Zm1,6.82a1.35,1.35,0,0,0-.11-.54,1,1,0,0,1-.11-.34,12.39,12.39,0,0,1-1.28,1,.7.7,0,0,1,.53.88v1.07q0-.19.32-.29A3.69,3.69,0,0,0,260,161.09Zm-.85-11.2h-.32l-.21,1.17h.32Zm.11,3.7c0-.32-.21-.49-.64-.49v.68a.7.7,0,0,0,.37-.1A.56.56,0,0,1,259.24,153.58Zm-.11,2.14-.21-.1-.32.39.32.2Zm1.81,1.46a1.27,1.27,0,0,1-.37-.1,1.35,1.35,0,0,0-.37-.1,2.5,2.5,0,0,0,.43.88,15,15,0,0,0-1.49,2.14q.43-.39,1.28,0v-.78Zm.53-13.64a4.35,4.35,0,0,0-.64,2.44h-.75c.07,0,.21.13.43.39a2.87,2.87,0,0,1-1.28,2,1,1,0,0,1,1,.49,2,2,0,0,1-1,.88.69.69,0,0,1,.43.68,6.31,6.31,0,0,1-.32,1.17c-.21.52-.21.88,0,1.07a1.4,1.4,0,0,0,.43-.15,1.81,1.81,0,0,0,.43-.24,6,6,0,0,1,.64-2.92q0-.09.53-3.7C261.37,145.17,261.41,144.46,261.48,143.55Zm-1.81,10.33v-.58h-.32v.58Zm1.07-34-.64-.29-.21.29Zm.64,35.66a.84.84,0,0,0-.85.29,5.24,5.24,0,0,0-.64,1h.64a1.69,1.69,0,0,1,.21-1,.33.33,0,0,1,.21.1v.58l-.11.29A3.71,3.71,0,0,0,261.37,155.53Zm-.32-42.19v-.29h-.64v.29Zm.43,39.46c-.5.39-.75.65-.75.78a.9.9,0,0,0,.32.68A2.7,2.7,0,0,1,261.48,152.8Zm.43,1.46a2.36,2.36,0,0,0-.11-1.56,2.92,2.92,0,0,1-.43,1.85Zm1-5.75a2,2,0,0,0-.64-1,2.72,2.72,0,0,1-.75,1.85V150a1.36,1.36,0,0,1,.37.1,1.68,1.68,0,0,0,.59.1q-.75-.58.32-2.34C262.83,147.9,262.86,148.13,262.86,148.52Zm-.53,3.9v-1H262v1Zm.75-6.23a9.46,9.46,0,0,0-.21-1.75q-.64,2.34-.64,1.95a1.11,1.11,0,0,0,.21.54,1.29,1.29,0,0,1,.21.44v-.78A1.16,1.16,0,0,1,263.08,146.18Zm.32-2.53h-.32l-.21.78h.32Zm.85-3.41a4.15,4.15,0,0,0-.21-.88q-.22,1.07-.75,3.51A6.32,6.32,0,0,0,264.25,140.24Zm.43-29.23a1.27,1.27,0,0,1-.85-.39c-.5.33-.57.65-.21,1A4.37,4.37,0,0,0,264.68,111Zm.11-.68V110h-1.07v.29Zm.53,54.37H265l-.21.58.32.1Zm.75-2.14-.32-.1-.43.78.32.1Zm1.28-4.87-.85.78-.37,1.71a12.44,12.44,0,0,0-.27,1.41v.49a17.1,17.1,0,0,0,1.17-2.73,1,1,0,0,1-.11-.49A4.91,4.91,0,0,0,267.34,157.68Zm.53,14.42-.75-.29a2.87,2.87,0,0,1-1.28.39h1A9.62,9.62,0,0,1,267.88,172.1Zm.85-65.86a1.3,1.3,0,0,0-.21-.78.9.9,0,0,1-.53-.1,1.91,1.91,0,0,0,.32-1.07q-.64.88-1.6,2.53,1.28.58,1.07.58Q268.73,107.4,268.73,106.23ZM268,154.07a2.27,2.27,0,0,0-.69,1.31c0,.42-.05.8-.05,1.12a3.94,3.94,0,0,0-.32,1,.87.87,0,0,0,.32-.1,1,1,0,0,1,.43-.1A13.93,13.93,0,0,0,268,154.07Zm3.95,9.84a2.41,2.41,0,0,0-1.17-.29,8.2,8.2,0,0,0-2.08.68q-1.65.68-1.76,1h.75c-.36.26-.39.39-.11.39a32.28,32.28,0,0,0,3.09-1.27q-.75.29-1,0Zm8.64-.1a8.29,8.29,0,0,1-2.77.49,2.13,2.13,0,0,1-.43.49l-.53-.49a1.35,1.35,0,0,0-.64.29,1.62,1.62,0,0,1-.53.29l-2.13.19a1.64,1.64,0,0,0-1.49.78.64.64,0,0,0-.43-.2v1.17H271c-.14,0-.18,0-.11-.15s0-.15-.11-.15a16.74,16.74,0,0,0-3.84,1.85q.32-.1,1-.34t1-.34a.9.9,0,0,1,.32.68,3.44,3.44,0,0,1,1.07-.29.64.64,0,0,0,.53-.29.57.57,0,0,1,.43-.29c.14,0,.21,0,.21.1s.07.1.21.1a23.18,23.18,0,0,0,4.21-1.56A28.62,28.62,0,0,0,280.57,163.81Zm14.4-26a17.75,17.75,0,0,1-1.49,3,49,49,0,0,0,1.39-5.55,1.58,1.58,0,0,0-.32-.78q-.11-3.41-3.73-6.19a22.19,22.19,0,0,0-9.81-3.85,12.61,12.61,0,0,1-2.45-.39h-1.92q-1.28,5.55-4.05,16.66a26.22,26.22,0,0,0-.32,3.21,5.36,5.36,0,0,0-.85,1.95l.21.2q.21.2,0,.88c.07-.13.14-.13.21,0q-.43,1.27-1.28,3.51-.11,1.75-2.88,11.59v.49c.28,0,.46.07.53.19a1.32,1.32,0,0,0-.37.1,1.18,1.18,0,0,0-.37.2,1.23,1.23,0,0,0,1.07-.39c.14,0,.21,0,.21.1h.21a11.3,11.3,0,0,0,3-1l2.35-1.17a16.28,16.28,0,0,0,2.19-1,14.59,14.59,0,0,1,1.65-.78,2.21,2.21,0,0,1,.64.1,1.9,1.9,0,0,0,.43.1c0-.65,0-.84-.11-.58a5.38,5.38,0,0,1,1.71-1c.14,0,.21,0,.21.1s.07.1.21.1a1.35,1.35,0,0,0,.8-.44,3.38,3.38,0,0,1,.69-.54c-.5,0-.57-.13-.21-.39.28.26.53.29.75.1a1.83,1.83,0,0,1-.75-.58q-4.59,3-5.87,3a1,1,0,0,1-.43-.1h-.43a18.17,18.17,0,0,0-2.45,1,14,14,0,0,1-2.56,1h-.43l-.21-.1c.28.33.25.49-.11.49l-.11-.58q2.34-1.07,6.61-3.22,8.21-5.06,11.52-8.67a1.85,1.85,0,0,0,.64-1.75,1.22,1.22,0,0,1,.64-.2c.07,0,.14.07.21.2a1.06,1.06,0,0,0,.21.29,23.81,23.81,0,0,0,1.71-2c-.28,0-.36-.06-.21-.19h.53l-.32-.58.32-.29q.11.1,0,.29c-.07.07,0,.1.21.1q.85,0,1.92-3A14.93,14.93,0,0,0,295,137.8Zm-27,31.08-.11-.2-.43.2v.29Zm.53,2.14v-.29h-1.07V171Zm0-17.93a2,2,0,0,0-.53.2.56.56,0,0,0,.16.29.58.58,0,0,1,.16.29,1.44,1.44,0,0,1,.11-.39A1.54,1.54,0,0,0,268.52,153.1Zm.43,17.44v-.29h-.75v.29Zm.32-65.47-.11-.29v-.29c-.07,0-.25.13-.53.39l.21.39A1.15,1.15,0,0,0,269.26,105.06Zm-.43,47.16q.11,0,0-1a11,11,0,0,0-.21,1.27A.31.31,0,0,1,268.84,152.22Zm.64,12.47-.53.2v-.29l.43-.19Zm1.6,5.46h-2.13a6.24,6.24,0,0,0,1.07.49,1,1,0,0,0,.53-.24A1,1,0,0,1,271.08,170.15Zm-1.6.68v-.29h-.53v.29Zm.11-21-.32-.1-.21.39.32.1Zm.32-1.17-.21-.1-.43.78.21.1Zm0-.29v-.49h-.32v.49Zm7.15,18.9q-2.56,1-7.36,2.63a5.36,5.36,0,0,0,1-.1h.64c.14,0,.19,0,.16.15s0,.15.16.15a5.49,5.49,0,0,0,3.31-1.46.64.64,0,0,0-.43.19q0-.29,1.07-.78Zm-4.27-3.7v-.29h-.64v.29Zm1.92,7.31q-.53.2-.64.1a.35.35,0,0,0-.32-.2Zm1-.68-1-.2v-.29l1,.2Zm1.49.2h-.53V170h.53Zm1-3.51-.11-.19-.85.39v.2Zm.32,2.92-.75.19v-.19l.64-.2Zm1.28-.29h-.53v-.29h.53Zm2.77-1.66-.85-.2v-.29l.85.19Zm9.28-22a9.37,9.37,0,0,1-1.17.88,1,1,0,0,1-.21.58,13.34,13.34,0,0,0-1.76,1.51,20.63,20.63,0,0,0-1.55,2L283.24,154c-.07-.06-.11.19-.11.78a.55.55,0,0,1,.75,0c0-.06-.18.07-.53.39l-.43-.39v.88q.11,0,2.35-1.17v.2c-.07.07,0,.1.11.1-.07,0,.18-.19.75-.58a1,1,0,0,0-.43.1l2.56-2.63-.53.29c-.07,0-.18-.1-.32-.29Q288.67,150.08,291.77,145.79Zm-5.33,21.92-.75.2v-.2l.64-.2Zm1-15.59a5.12,5.12,0,0,1-.59.39,4.9,4.9,0,0,0-.69.49c.14-.06.21-.32.21-.78h.43A3.2,3.2,0,0,1,287.39,152.12Zm.11,12.57c-.14,0-.21-.13-.21-.39a1,1,0,0,0-.43.68A1,1,0,0,1,287.5,164.69Zm.85-10.23-.53-.2-.11.2.53.2Zm.43-3.31-.32-.1-.21.39.21.1Zm13.33,1.46-.21-.29-.75.59.11.29Zm2-3.12a2,2,0,0,0-.53.24.91.91,0,0,0-.32.54,5.34,5.34,0,0,0-1.28,1.95A22.33,22.33,0,0,0,304.14,149.49Zm4.69-14.81h-.32v-.39h.32Z" fill="#000"/><path d="M360.23,159.72a6.61,6.61,0,0,0,1.17-.49q4.69-1.17,7.25-1.85a4.23,4.23,0,0,1-1-.39h-.32a.88.88,0,0,1-.32.1c-.28,0-.43-.1-.43-.29a13.22,13.22,0,0,1,1.6-.78,2,2,0,0,0-.53-.1l-9.81,1.85a.73.73,0,0,0-.27-.15,1,1,0,0,0-.27,0,11.94,11.94,0,0,1,3.41-.68,6.92,6.92,0,0,1-1-.1l-.75-.1a10.3,10.3,0,0,0-1.23.2,10.11,10.11,0,0,1-1.23.2c-.14,0-.18-.06-.11-.2a27.22,27.22,0,0,0,4.27-.88.71.71,0,0,1,.37.1.54.54,0,0,0,.27.1,7.75,7.75,0,0,0,1.33-.34,6.53,6.53,0,0,1,1.55-.34c-.43-.45-.36-.78.21-1a.46.46,0,0,0-.32.1l-.32-.29L352,156c-.36,0-.57-.06-.64-.19a6.25,6.25,0,0,1,2.35-.58l-2.13.1a15.39,15.39,0,0,1-.21-3q.64-.49.64-.88a.57.57,0,0,1-.21-.78.45.45,0,0,0,.32.1v-2.44a.38.38,0,0,1,.11.29v-1.17l.11.19q.64-3.8,1.07-5.65a5.65,5.65,0,0,0,0-1.56,19.36,19.36,0,0,1,.75-2.53q.64-3.31,1.49-6.72a17.72,17.72,0,0,0-1.07,1.85,8.2,8.2,0,0,1,.27-1.8q.27-1.12.37-1.61a1.44,1.44,0,0,1,.43-.78,20.39,20.39,0,0,1,.53-2.44,20.76,20.76,0,0,0,.64-4.58,2.47,2.47,0,0,1,.53-1.27.92.92,0,0,0-.53-.1q-.75,0-.75-1,0-1.66.11-1.27a1.21,1.21,0,0,0-.27-.44,1.14,1.14,0,0,1-.27-.44q0-.19.32-.39a2.54,2.54,0,0,0-.53-1.95,1.72,1.72,0,0,0-.37.09c-.1,0-.16-.05-.16-.13s-.07-.15-.21-.15-.32.21-.32.63-.18.63-.53.63h-.32a2.69,2.69,0,0,0,.21-2.34,12.69,12.69,0,0,1,1.6-2.34V111a1.38,1.38,0,0,1-1-.39.9.9,0,0,0-.21-.68,2.85,2.85,0,0,1-1.49,0q1.6-2.34,1.6-2a.4.4,0,0,0-.05-.19l0,0a.78.78,0,0,0-.14-.18,6.69,6.69,0,0,1-1.28.78,4.35,4.35,0,0,1-1.28,1.36c-.07,0-.11-.1-.11-.29s.14-.23.43-.49.43-.45.43-.58-.07-.26-.21-.19a2.53,2.53,0,0,0-.11-1.27q-.43.1-.53,0l1-1.27,0,0-.61-.66a6.94,6.94,0,0,1-.53-.67,9.49,9.49,0,0,0-.4,1.27,2.08,2.08,0,0,1-.75,1,.77.77,0,0,0-.75-.58,4.7,4.7,0,0,0-.59.1,4.46,4.46,0,0,1-.59.1.28.28,0,0,0-.21.15.37.37,0,0,1-.32.15c-.21,0-.32,0-.32-.1q-.22.58-.64.58h-.11s0-.06-.06-.07a6.69,6.69,0,0,1-1.33.27l-.75,1.27c-.14,0-.2,0-.16-.1s0-.1-.16-.1q.1,0-.64.49v-.2a18.43,18.43,0,0,1,2.88-4.29v-.49a1,1,0,0,1-.43-.1,47.18,47.18,0,0,0-4.16,6.72q-1.17,2.53-1.71,3.9-8.53,14-10.56,17.73-3.74,7.8-5.23,11.59l4.91-10.23a2.08,2.08,0,0,1,0,1l4.16-7.89v.49q0,.1-4.16,7.79a5.31,5.31,0,0,0-.11.88,5.14,5.14,0,0,0-.75,1c.14,0,.21.07.21.19a25.79,25.79,0,0,0-1.49,2.34l.21.39q-1,.2-.53,1.07-.43.68-.64,1,0-.39-.21,1.17a1,1,0,0,1-.53.39,58.08,58.08,0,0,0-2.67,6.14q-1.28,3.7-1.81,4.19a14.74,14.74,0,0,0-1.71,3.51q.64,0,0,1.17a.64.64,0,0,0-.43-.2,1.54,1.54,0,0,1-.11.39v.39a.66.66,0,0,1,.32-.29c0,.07-.07.39-.21,1a.37.37,0,0,0-.43-.1.69.69,0,0,1,.43.29,4.11,4.11,0,0,0-.43.78l-.21-.29-.21.2v.39a1.15,1.15,0,0,1-.43.39.88.88,0,0,0,.32-.1.9.9,0,0,1,.32-.1V161a17.41,17.41,0,0,0-.75,1.66c-.21.91-.53,1.36-1,1.36h-.21l.43-1.31q.11-.34.21-.63c.14,0,.21.07.21.2l.43-.39a1.65,1.65,0,0,1-.21-1.07q-1.28,2.83-1.92,4.19l-3.63,10.91a4.73,4.73,0,0,1,.64-.39q.85-2.63,1.49-4.38a7.2,7.2,0,0,0,.43-.88c.14,0,.21,0,.21.1q-1.92,6.24-1.92,5.36v.68a.58.58,0,0,1,.43.29.61.61,0,0,1,.43-.39l.21.2-.53.49a.34.34,0,0,0-.32-.2,5.3,5.3,0,0,1,.32,2.14.53.53,0,0,0,.11.39,15.54,15.54,0,0,0-1.28,3.31l.21.49.32-.1q1.28-2.54,1.81-3.8a2.75,2.75,0,0,1,.75-.39c.64-.39.92-.58.85-.58.57,0,.85.16.85.49a2.18,2.18,0,0,1-.85,1.56,2.81,2.81,0,0,1-.27.63,2.64,2.64,0,0,0-.27.63c0,.45.25.68.75.68q1.06-1.46,1.6-2.24l.21.29c0,1,0,1.46-.11,1.27a5.3,5.3,0,0,0,.64.86,8.67,8.67,0,0,0-.11,2.06,1.67,1.67,0,0,0,.43.29,2.77,2.77,0,0,0,.75-1.17q1.17-2.92,1.71-4.19a1,1,0,0,1,.32.78,3,3,0,0,1-1.17,2.34l.43.29h.43a9.6,9.6,0,0,0,3-5.46,10,10,0,0,0,.11-1.27q.75-2.34,1.28-3.6a6,6,0,0,1,1.17-3.07,3.42,3.42,0,0,1,2.45-.73c-.07,0,.11.23.53.68q8.53-2.73,9.92-2.73a.93.93,0,0,1,.64.19q0,2.63.43,7,.53,5.36.64,7.11,0,.58.75.58c0-.52.07-.84.21-1a3,3,0,0,1,.32.39,2.78,2.78,0,0,0,.32.39.94.94,0,0,0-.43.59,7.52,7.52,0,0,0,1.07.39.47.47,0,0,0,.32-.1h.43c.07,0,.25.13.53.39a.82.82,0,0,1,.32-.58,3.76,3.76,0,0,1,.21.49,1.87,1.87,0,0,1-.75.19,2.8,2.8,0,0,0,.21.58,11.21,11.21,0,0,1,.85,1.07,5.53,5.53,0,0,1,.11.88l.48-.1a1.59,1.59,0,0,0,.37-.19,1.08,1.08,0,0,1,.53-.2c.14,0,.21,0,.21.1v1a5.56,5.56,0,0,0-.11,1q0,.68.75.68c-.14,0,.32-.13,1.39-.39v-.49a12.55,12.55,0,0,1-1.17-3.41,5.79,5.79,0,0,0,1.49,1q.53,0,1-.73a1.63,1.63,0,0,0,.32-1.12,6.74,6.74,0,0,1,1.39-.78,14.79,14.79,0,0,0-.48-1.75,1.54,1.54,0,0,0-.27-.49,9.85,9.85,0,0,1,.21-1.07q-.21-3-.32-3.6-.32-2.83-.64-9.74l5.23-.88a1.58,1.58,0,0,1,1.17-1,5.11,5.11,0,0,1,1.49-.29,5.58,5.58,0,0,1,.53-.29c3.78-.88,6.59-1.55,8.45-2a.19.19,0,0,1-.13,0c-.36-.26-.46-.39-.32-.39a1.6,1.6,0,0,0-.53.29,1.35,1.35,0,0,1-.64.29,6.34,6.34,0,0,1-.75-.15,6.27,6.27,0,0,0-.75-.15q-.22,0-2.88.44t-2.88.44h-.32a.33.33,0,0,0-.21-.1,4.45,4.45,0,0,0-.91.2,5.59,5.59,0,0,1-.8.19c-.21,0-.32-.1-.32-.29q3.94-1,4.48-1.07H360q-2.45.68-3,.39a1.44,1.44,0,0,1,.91-.2A7.81,7.81,0,0,0,360.23,159.72Zm-30.82-26.6-.21-.1.64-1.07h.21Zm13-22.9h.21l-.32.78-.21-.1Zm-7.79,13.64h.21l-.64,1H334Zm-.75,1.17h.21l-.53,1.27-.21-.1Zm8.43,28.06q0-1.26.11-3.85t.11-2.63a1.08,1.08,0,0,1,.16-.29c.11-.16.2-.31.27-.44v-1.27c0-.32.14-.36.43-.1Zm1.81-22.9q-.75,2.34-1,3.22l-1.92,12.37a4.92,4.92,0,0,0-.32.68,3.21,3.21,0,0,1-.32,2.73q-.32,5.16-.53,7.89-4.37.78-6.61,1.12t-3.73.54q.32-1.07.43-1.56a29.53,29.53,0,0,1,3-1.17,16.57,16.57,0,0,1,2.93-.88c.14,0,.18,0,.11.1h.21c.43,0,.64-.16.64-.49a3,3,0,0,0-1-.1,1,1,0,0,0-.48.15,1,1,0,0,1-.37.15,22.11,22.11,0,0,0-4.48.49l5.12-11.89.21.1L342,132a.68.68,0,0,1,.32.29,27.22,27.22,0,0,1,2.24-4.77Q344.34,129.23,344.13,130.2Zm4.05,37.8.21-.58a.39.39,0,0,0,.05.19l.16.29A1,1,0,0,1,348.18,168Zm1.17.39h-.21v-3.22h.21Zm.43,8.38h-.21v-1.46h.21Zm.75-.39-.32-.1a26.28,26.28,0,0,1,0-3.6h.21A16.12,16.12,0,0,1,350.53,176.38Zm-.11-20.95a2.62,2.62,0,0,1-.21-1.07,13.09,13.09,0,0,1,.16-1.61,12.86,12.86,0,0,0,.16-1.61,3.19,3.19,0,0,0-.21-1.27c-.14.13-.21.23-.21.29q0-2.43,1-3.22.74-3.6,1.71-7.7a1.6,1.6,0,0,0-.32-.39,6.09,6.09,0,0,0,1.17-2.24A148.93,148.93,0,0,0,350.42,155.43Zm5.23,2.44.32-.39c.28,0,.46.07.53.2Z" fill="#000"/><rect x="318.11" y="160.21" width="0.21" height="0.29" fill="#000"/><polygon points="319.28 157.19 319.18 157.48 318.96 157.38 319.07 157.09 319.28 157.19" fill="#000"/><polygon points="321.63 152.9 321.42 152.81 321.2 153.19 321.42 153.19 321.63 152.9" fill="#000"/><rect x="330.27" y="131.08" width="0.21" height="0.39" fill="#000"/><polygon points="335.17 109.94 335.17 110.13 334.53 109.84 334.53 109.64 335.17 109.94" fill="#000"/><polygon points="335.28 122.99 335.07 122.99 334.85 123.38 335.07 123.48 335.28 122.99" fill="#000"/><rect x="335.17" y="122.6" width="0.21" height="0.29" fill="#000"/><polygon points="335.7 122.21 335.49 122.11 335.28 122.5 335.49 122.6 335.7 122.21" fill="#000"/><rect x="340.5" y="140.33" width="0.21" height="0.39" fill="#000"/><polygon points="342 111.2 341.79 111.2 341.68 111.69 341.89 111.79 342 111.2" fill="#000"/><rect x="342.1" y="132.93" width="0.21" height="0.68" fill="#000"/><rect x="348.5" y="155.14" width="0.32" height="0.39" fill="#000"/><polygon points="350.32 180.28 350.1 180.28 350 180.77 350.21 180.77 350.32 180.28" fill="#000"/><rect x="350.42" y="149.1" width="0.21" height="0.39" fill="#000"/><rect x="351.81" y="149.1" width="0.21" height="0.58" fill="#000"/><rect x="353.52" y="135.95" width="0.21" height="0.49" fill="#000"/><rect x="353.94" y="134.29" width="0.21" height="0.39" fill="#000"/><polygon points="356.07 163.42 355.54 163.23 355.54 163.42 355.97 163.62 356.07 163.42" fill="#000"/><polygon points="367.91 159.82 367.49 159.92 367.49 159.82 367.81 159.62 367.91 159.82" fill="#000"/><rect x="367.91" y="159.53" width="0.53" height="0.19" fill="#000"/><path d="M439.69,166.4a4.16,4.16,0,0,0-1.28-2v2.53q0,.2,1.07,1.17c.71.65,1.17,1,1.39,1,.5,0,.75-.2.75-.58A3.43,3.43,0,0,1,439.69,166.4Z" fill="#000"/><path d="M438.94,175.51a.69.69,0,0,1-.11-.29q-.21-1.36-.32-2.14-.75-2.24-1.17-3.41a6.33,6.33,0,0,0-.21-2.63c.28-.2.36-.58.21-1.17a10,10,0,0,1-.32-2.14,4.3,4.3,0,0,1,.11-1.95q-.53-4.77-.53-4.48c0-.78.07-1.23.21-1.36a11.82,11.82,0,0,1,.85,1.46l.21-12.86c-.14-.13-.21-.23-.21-.29a1,1,0,0,0,0-.88,3.45,3.45,0,0,0-.43-.49q1.17-1.75.21-2.83a1.14,1.14,0,0,0,.32-.58.45.45,0,0,1-.32-.1A2.24,2.24,0,0,1,438,139a7.89,7.89,0,0,1,0-1.85q0-.49.21-2.24t.21-1.95a5.06,5.06,0,0,0-.21-1.66q-.53.29-.75,0a3.23,3.23,0,0,1,.11-1.66l-.21.1H437q-.64,0-.64-.88c0-.45,0-.58.11-.39a5.25,5.25,0,0,0,.27-.63,2.16,2.16,0,0,0,.16-.63,1.9,1.9,0,0,1-.85-.1,3,3,0,0,1,.64-.49q.21-2.24.21-2.53a11.17,11.17,0,0,0,.21-2.92q.53-1.66.32-2,.64-.68.64-.88a4.46,4.46,0,0,0-.43-1.75c-.28-.13-.43-.23-.43-.29a2.06,2.06,0,0,0,1-1.75,3.12,3.12,0,0,1,.53-1.75q-.64-.1-.69-1.07c0-.65-.16-1-.37-1.17a3.7,3.7,0,0,0-.53,1.56,1.49,1.49,0,0,1-1,1.17,2.14,2.14,0,0,1,.21,1.17q-.43.88-.53,1.17c-.5.91-.82,1.36-1,1.36s-.39,0-.32-.1a10,10,0,0,0,.53-1.07,15.62,15.62,0,0,0-.11-2.14.89.89,0,0,1,.21-.49,1,1,0,0,0,.21-.39q0-.19-.32-.49t-.32-.39a12.36,12.36,0,0,1,.59-1.8,12.6,12.6,0,0,0,.59-1.8c0-.39,0-.62-.11-.68a3.24,3.24,0,0,1-.75-.68,1.77,1.77,0,0,1,0-.88,2.15,2.15,0,0,0-.16-.45.28.28,0,0,1,.26-.13,5,5,0,0,1,1.71-3.12v-.68a3.72,3.72,0,0,0-1-.19,13.75,13.75,0,0,1-1.92,3.31,11.4,11.4,0,0,0-1.17,1.46,24.11,24.11,0,0,0-1.17,2.53h-.43a7.34,7.34,0,0,1,.11-1.07v-1a.82.82,0,0,1-1,.2,3.37,3.37,0,0,0,.53-1.95c-.43.13-.68.29-.75.49q-2,4-3,5.94a3.57,3.57,0,0,1-1,1.56,9.05,9.05,0,0,1-.21-1.66,14.81,14.81,0,0,0-.64,2.53q-.64,1.56-1.07,2.44-.11,1.75-.11,2.73a9.86,9.86,0,0,1-1.07,2.53q-.54,2.44-.75,3.6a2.6,2.6,0,0,1-.32-1.27q0,.29.64-3.6-.32.58-.64.58a.45.45,0,0,1-.32-.1v-.49a6,6,0,0,1-1,1.27,8.18,8.18,0,0,1-.21,1.22,2.19,2.19,0,0,1-.32.63q-1.07,4.87-1.49,7.4a.27.27,0,0,0,.11.2,15.3,15.3,0,0,0-.64,3.6,24.81,24.81,0,0,0,.11,2.73,24.42,24.42,0,0,0-.32,4.48,1.15,1.15,0,0,1-.21.29q0,.78.11,2.14t.11,1.75a8.4,8.4,0,0,1-.32,2.24H417q-.21-1.56-.32-2.24a2.07,2.07,0,0,1-.11.44,1.92,1.92,0,0,0-.11.54,5.25,5.25,0,0,1-.53.29l-.21,1q-6.29-5-9.71-8.18c.28.26.28.45,0,.58a32.23,32.23,0,0,1-3-2.44,2.92,2.92,0,0,1-.21-1q-.75-1.85-1.81-1.85h-.11c0,.07-.07.1-.21.1q.21,0-1.28-1.46-.64.1-1.71-1l-1.6-1.46a6.19,6.19,0,0,1-1.17-.88,44.35,44.35,0,0,1-3.63-3.8,5.52,5.52,0,0,1-1.49-2.34q-1.49-1.07-2.35-1.56a13.35,13.35,0,0,1-1.6-2.34q-1.17-1.85-1.49-1.85a1,1,0,0,0-.85.58l-.53.88c-.28-.26-.46-.39-.53-.39.28.58.5,1,.64,1.27l.43-.29q.21.88.32,1.17a3.34,3.34,0,0,1,1.07,1.07q-.64.58-.64.88t2.45,5.16l-.64.68a1.1,1.1,0,0,0,.11.44,1.14,1.14,0,0,1,.11.44l-.32.2a.64.64,0,0,0-.64.2,2.4,2.4,0,0,1-.21-1,1.32,1.32,0,0,1,.11-.54,1.07,1.07,0,0,0,.11-.34,2.16,2.16,0,0,1-.64-.39c-.07,0-.16.07-.27.2a.58.58,0,0,1-.48.2q-.21-.29-1.49-.29h-.21a1.89,1.89,0,0,0-1.49-.78.89.89,0,0,0-.53.29,1.6,1.6,0,0,1-.32-.68,3,3,0,0,1-1.28.49q0,.2-1.17.68-.43,1.37-.75,2.83a6.26,6.26,0,0,1-1.81,2.63.37.37,0,0,1-.11-.29,1.14,1.14,0,0,1,.32-.58,1.14,1.14,0,0,0,.32-.58,3.24,3.24,0,0,0-.64-1.36,2.16,2.16,0,0,0,.32-1h-.64c0,.65,0,.91.11.78a2,2,0,0,0-.64.68,19.36,19.36,0,0,0-.75,2.73v.78q-.75,2.63-1.07,4.19a.92.92,0,0,0-.64.2c.28,1,.43,1.59.43,1.66a4.32,4.32,0,0,0-.53,2.24q-.64,2.63-.64,2.83a.45.45,0,0,0,.16.34c.11.1.16.18.16.24a5.53,5.53,0,0,0-.64,1.95v6.72l1.07,12.76a.44.44,0,0,1,.43.19q1.17,3.7,1.17,3.51a3.5,3.5,0,0,1-.21.83,3.37,3.37,0,0,0-.21,1q1.81.2,1.92.49a1.87,1.87,0,0,1-.11.78,2.05,2.05,0,0,0,1,.68v.49a5.46,5.46,0,0,0,.75,2.83.93.93,0,0,1,.35,0,6.13,6.13,0,0,1,1.27-.56s0-.08,0-.13q.05-.88.8-.78c-.28,0-.43-.13-.43-.39q.75-.29,1.28.88s0,.08,0,.13l.47,0a7.84,7.84,0,0,1,1,.06,2.83,2.83,0,0,1-.38-.95q0-.1.32-.29a12.29,12.29,0,0,0,1.92.68,3.56,3.56,0,0,0,1.49-.29,8.55,8.55,0,0,0,1-1,5.59,5.59,0,0,0,1.17-.1,2.63,2.63,0,0,0-.11-1,11,11,0,0,0,1.81-1.46c.36.33.5.49.43.49H390V171a5.24,5.24,0,0,1-.32-1.36,11,11,0,0,0,.43-2.44q0-.78.11-4.09l.43-.39q.43,1.17,1,2.49a2.54,2.54,0,0,0,1.39,1.61l1.07-1a3.46,3.46,0,0,1-1.28-1.75,11,11,0,0,0-.64-2.24l-.64-5.26q.32-3,.32-3.8,1.17,1.17,1.6,1.66a51.78,51.78,0,0,0,7.25,5.94q1,.39,1.49.58a10.72,10.72,0,0,1,1.6,1.56q3.2,2.24,4.37,3a3.73,3.73,0,0,0-1.39-1.41,3.39,3.39,0,0,1-1.39-1.51,21.71,21.71,0,0,1-2.13-1.66q-1.28-1.26-1.6-1.66a4.54,4.54,0,0,1-1.6-1q-4.48-4.29-6.61-6.53l.32-.29a1.34,1.34,0,0,0-.53.15,1.37,1.37,0,0,1-.43.15,13.93,13.93,0,0,1-1.28-2.24l.21-.68h.43q4.9,4.58,7.25,6.92l1.39.88a3.93,3.93,0,0,1,1.49,1.27,1.85,1.85,0,0,0,.43.1,2.87,2.87,0,0,0,1.07,1.36,13.22,13.22,0,0,1,2,1.7,5.29,5.29,0,0,0,2.19,1.51,47.7,47.7,0,0,0,4.37,4.09,1.52,1.52,0,0,1,1,1q4.9,3.9,5.12,4.19a5.07,5.07,0,0,1,.32.49,1.73,1.73,0,0,1,.85.29q1,1.36,1.49,2,.64,2.34.85,3.6a8.31,8.31,0,0,0,.53.88,4.28,4.28,0,0,1-.11,1.07l1.28,2q1,2.24,1.49,2.44a2,2,0,0,0,.43-.78,1.64,1.64,0,0,0,.53.68,3,3,0,0,1,.21-1.46h.43c.21.65.39,1.17.53,1.56a4.7,4.7,0,0,0,.48-1c.18-.45.34-.68.48-.68s.21,0,.21.1h.11a.87.87,0,0,0,.64-.39c.14.06.18.13.11.2a1.87,1.87,0,0,1-1,1q.64,0,.53.49c.21-.45.36-.78.43-1a2,2,0,0,1,.53.2V185c.36-.07.72-.14,1.08-.19a2,2,0,0,1,.2-.23l.2.19,1.06-.12v-.07l-.32-.78q-.21-.49.21-.68,1.92-.1,2.35-.1-.11-.29.75-1.22t1.07-1.22a5,5,0,0,0,.21-1.17,3.21,3.21,0,0,1,1.12-1c.32-.13.48-.23.48-.29a9.18,9.18,0,0,1,.82-2.36A.83.83,0,0,0,438.94,175.51Zm-62,1.85c-.07,0-.11-.23-.11-.68l1,.39A1.49,1.49,0,0,0,377,177.36Zm7-2.83h-.64c-.21-.33-.39-.62-.53-.88a2.3,2.3,0,0,1,1.39.39A1.58,1.58,0,0,0,384,174.53Zm19.52-29.91q0-.58-1.17-1.46L400.87,142a4,4,0,0,0-2-1.17q-3-2.92-4.59-4.38t-1.6-1.85c0-.39.14-.58.43-.58l1,.58a60,60,0,0,0,4.69,4.19,21,21,0,0,1,1.81,1.66,12,12,0,0,0,2.67,2.14,4.64,4.64,0,0,1,1.07,2Zm3.84,5.55c0-.26.25-.52.75-.78q-.22.59.59,1.46t1.65,1.75Q409.93,152.61,407.37,150.17Zm1.28-.68q-3-3.12-4.37-4.77c.28-.26.43-.42.43-.49a1.08,1.08,0,0,0,.53.2q.75.68,4.37,3.6a7.91,7.91,0,0,1,2.35,2.73.64.64,0,0,1,.43-.2c.43,0,.92.52,1.49,1.56l.43-.2a.54.54,0,0,0,.32.68c.28.13.43.23.43.29a12,12,0,0,1,.53,2Q410,150.56,408.65,149.49Zm13.22-28.25h.32L422,122h-.21Zm.11,5.16h-.21l.11-.88h.32Zm7.79-8.77q0-.49.43-.49a4.21,4.21,0,0,1,.11.88C429.95,118,429.77,117.89,429.77,117.63ZM436,135.27a12.29,12.29,0,0,1,.43-1.56.81.81,0,0,1-.32-.58,2.1,2.1,0,0,1,.32-.58c.21-.32.35-.55.43-.68a5.71,5.71,0,0,0,.43.49,2,2,0,0,0-.21,1.17,2.32,2.32,0,0,1-.43.58,5.25,5.25,0,0,1,.32,1.46L436.6,137a1,1,0,0,0-.64.29c.07-.06,0-.32-.11-.78A2.77,2.77,0,0,0,436,135.27Zm-.11,4.19-.43-.39q.32-.19.32-1.27c.57,0,.85.23.85.68C436.6,138.68,436.35,139,435.85,139.46Z" fill="#000"/><rect x="373.35" y="177.65" width="0.21" height="0.39" fill="#000"/><polygon points="379.96 126.11 379.75 126.3 379.54 126.11 379.64 125.91 379.96 126.11" fill="#000"/><polygon points="424.01 184.37 423.8 184.76 423.58 184.66 423.8 184.28 424.01 184.37" fill="#000"/><polygon points="437.66 100.97 437.45 101.36 437.24 101.26 437.45 100.87 437.66 100.97" fill="#000"/><polygon points="439.15 124.16 438.94 124.65 438.73 124.55 438.94 124.16 439.15 124.16" fill="#000"/><path d="M506.45,151.54a9.08,9.08,0,0,1-3.09,1.75,5.74,5.74,0,0,0-2.56,1.46,5.24,5.24,0,0,0-2.24,1c-.14.07-.07.1.21.1q.1,0,4.48-1.56c0,.26,0,.42.11.49q.64-.19.64-.58a8,8,0,0,0,2.13-.49q-.53.29-1.71.88a3.57,3.57,0,0,1-.75.68q-9,4.68-10.66,4.68a3.07,3.07,0,0,0-1.28.29,1.56,1.56,0,0,0,.27.2,1.79,1.79,0,0,1,.27.2c.21-.06.6-.21,1.17-.44a8.79,8.79,0,0,0,1.17-.54q0,.2-1.6.88a1.22,1.22,0,0,1-1.17.58,2.21,2.21,0,0,1,.05-.73s-.09,0-.37,0a3.17,3.17,0,0,0-2.35,1c-.07.13,0,.19.32.19a1.44,1.44,0,0,0,1.39-.88.86.86,0,0,1,.37.39.85.85,0,0,0,.37.39,1.64,1.64,0,0,1-.85.19c-.21.2-.32.33-.32.39s0,.19.32.19a2,2,0,0,0,.8-.39,3.27,3.27,0,0,1,.8-.44,13.31,13.31,0,0,1,1.6,0,.59.59,0,0,1,.43.24.58.58,0,0,0,.43.24q-.64,0,4.27-1.27-3.52,1.56-10.45,4.58a.28.28,0,0,1,.11.2.12.12,0,0,0,0,.2,18.24,18.24,0,0,1,4.37-1.75q5.12-1.56,5.23-1.56l-11.09,4.58.21.19a6.48,6.48,0,0,0,1.28-.68c0,.13-.36.42-1.07.88a3.6,3.6,0,0,1-1.49.68,1.88,1.88,0,0,1-.53-.1,2.21,2.21,0,0,0-.64-.1,1.49,1.49,0,0,1-.11.49,11.42,11.42,0,0,1-3.52,1.66l.11.49a5,5,0,0,1,1.49-.68q7-2.63,7.36-2.63c.21,0,.32,0,.32.1s.07.1.21.1A15.13,15.13,0,0,0,495,166q-2.88,1.07-8.43,3a110,110,0,0,0-11,5q-2.67,1.46-7.68,4.48a1.17,1.17,0,0,0,.11,1.07,25,25,0,0,1-6.51,1.95q-4.8,1-4.59,1h-2a2.63,2.63,0,0,1-.75-.2c-.36-.13-.55-.24-.59-.34a1.47,1.47,0,0,0-.37-.44,2.43,2.43,0,0,1-1.71-.58,2,2,0,0,0-1.39-.58l-.53-.19c.5,0,.6.36.32,1.07a17.25,17.25,0,0,0,3.2,1.85l-1.6.29a6.51,6.51,0,0,1-3.09-1.75,7.34,7.34,0,0,0-1.07-1.56q-.53-.2-4.05-1.27a16,16,0,0,1-3.95-6.92q-.75-3.7-1.6-7.4v-3.9l1-9.94q.1-.19,1-3.41,1.38-4,4.05-12l-4.27,16.56.11,2.44a1,1,0,0,0,.43-.68q.43-1.27,2.88-8.77a7.7,7.7,0,0,1,.11-1.17q.64-1.66,1.49-4.48A53.58,53.58,0,0,1,449,129a46.54,46.54,0,0,1,5.65-8.38,30.15,30.15,0,0,1,9.71-10.23q.11-.1,2.67-1a11,11,0,0,1,2.88-.58,1,1,0,0,1,.48.15,1,1,0,0,0,.48.15,13.23,13.23,0,0,0,1.6-.88.8.8,0,0,0-.48-.1,2.28,2.28,0,0,1-.85-.19,2.23,2.23,0,0,0-.8-.2,11.68,11.68,0,0,0-1.49-.1,5.84,5.84,0,0,0-1.07.24c-.57.16-1,.28-1.28.34q.53-1.46,3.2-1.46a17.28,17.28,0,0,1,2.19.44,21.25,21.25,0,0,0,2.08.44,3.66,3.66,0,0,0,.91-.24,3.75,3.75,0,0,1,.91-.24q2.24,0,6.29,3.22a28.75,28.75,0,0,1,5,5.07,14,14,0,0,0,2.45,2.63l.32.88a27.06,27.06,0,0,0,2.45,3.31c.07.07.14,0,.21-.1a5.89,5.89,0,0,0-1.39-2.48,10.25,10.25,0,0,1-1.6-2.49,8.16,8.16,0,0,1-.64-.68,1,1,0,0,1,.21-.39l.43.29c-.07-.06,0-.1.32-.1s2.2,2.21,5.55,6.63v1.27a9.71,9.71,0,0,1-.53,1.66q-.43.1-.43.39-.32-.39-1.07-1.17c-.07.07-.11.33-.11.78a4.06,4.06,0,0,0,.85,3q-.85.59-.85,1.17a.56.56,0,0,0,.32.49q1.49-.19,1.49,1.07l-.75.78h-.64a8.36,8.36,0,0,1-1-1.46c-.36-.06-.53,0-.53.29a2.21,2.21,0,0,0,1,1.51q1,.83,1,1.12a1.76,1.76,0,0,1-1,1.56h-.75q-1.28-2.82-1.81-2.83a1.26,1.26,0,0,0-1,.49,1.63,1.63,0,0,1,.32.68q0,1.75-5.44,3a6.42,6.42,0,0,0-.85-1.46q-2.88-.68-3-.68h-.53l-.32.1a7.32,7.32,0,0,1-1.28-3.7q-.11-1.56-.85-1.56h-.32l-.11.1a9.57,9.57,0,0,0,.32-2.34,4.81,4.81,0,0,0-1.39-2.53c-.14-.39-.21-.55-.21-.49q-2.24-2.14-2.88-2.14a11,11,0,0,0-3.52,3,3.41,3.41,0,0,0-1.28.63,12.5,12.5,0,0,0-1.81,1.71q-.75,1.46-2.45,4.09c-.21.13-.53.36-1,.68q-.21.68.21.39a22.4,22.4,0,0,1-2,3.8l.21.29a1.64,1.64,0,0,0-.85.39q-.53,1.17-2.35,5.94-.53,1.85-1.81,5.55a21,21,0,0,0-1.07,3.31,6.25,6.25,0,0,0-.43.49,4.81,4.81,0,0,1-.43,1.8,4.48,4.48,0,0,0-.43,1.51,2.26,2.26,0,0,0,.32,1.07,1.07,1.07,0,0,0-.75.29.57.57,0,0,0,.32.49.72.72,0,0,0,.11-.49q.21.49,0,.68l-.64.59.21,2.24a.89.89,0,0,1,.32-.1q-.53,4.29,1.07,4.29a8.14,8.14,0,0,0,1.17-.49,1.31,1.31,0,0,0-.53.88,5.17,5.17,0,0,0,1.39.1,3.37,3.37,0,0,0,.8-.49,2.37,2.37,0,0,1,.91-.49q-.11,0,.32.29.64-.29.21-.58a2,2,0,0,1,1.17.49,6.44,6.44,0,0,1,2.56-1.17l24.53-9.65-1.17.54a15.79,15.79,0,0,0-1.6.83,4.06,4.06,0,0,1,1.17.2,1.34,1.34,0,0,0-1,.39.87.87,0,0,0-.16,1q-1.49.2-4.37.78a55.38,55.38,0,0,0-5.12,2.14.63.63,0,0,1,.16.24c0,.1.09.15.16.15q2.77-1,8.32-2.63a4.23,4.23,0,0,0,1.23-.63,3,3,0,0,1,1-.54,1.16,1.16,0,0,1,.43.2L499,151.64a.48.48,0,0,1,.32.1.65.65,0,0,0,.43.1,19.86,19.86,0,0,0,3.2-1.36q-.11.1-12.26,6.14a.52.52,0,0,0,.11.39,17,17,0,0,1,4.8-1.66h.21c0,.06.07.1.21.1Q497.49,155.43,506.45,151.54ZM457,164l-.53.2v-.29l.43-.19Zm2.13-2.53q-.75.59-.53,1a4.8,4.8,0,0,1-.64-1.46c.14,0,.39.16.75.49l.43-.39a.79.79,0,0,0,.11.39v.29A.73.73,0,0,0,459.1,161.48Zm2.13-24.16-.21.78h-.32l.21-.78Zm9.17-31.47-1.92.1a3.48,3.48,0,0,1-.43-.78,2.2,2.2,0,0,0,.64-.15,2.17,2.17,0,0,1,.64-.15Q470.08,104.87,470.4,105.84Zm2.24,20.07-.21.1-.43-.39.21-.2Zm4.27,2.53h-.32l-.43-.68.32-.1Zm.32-1.75-.64.39-.21-.29.64-.39Zm3.63,37.41-.11-.2-.64.39.11.19Zm9.49-11.59-2.35,1v-.2l2.24-1.07Zm-.43,13.64-.85.39v-.29l.75-.39Zm5.65-9.94v-.29l-.85-.2V156Zm4.05-26.5a4.2,4.2,0,0,1-.64.88,1.66,1.66,0,0,1-.48,1.75,2.75,2.75,0,0,1-1.76,1,1.07,1.07,0,0,1-.75-1.07l.43-.68a1.6,1.6,0,0,1-.21-.78q0-1.66,2.35-1.66A1.8,1.8,0,0,1,499.62,129.71Zm-2,29.91-1.17.68-.11-.19,1.17-.68ZM502,122.5q0,1.17-1.81,2.24c-.07-.06.14-.1.64-.1a1.05,1.05,0,0,1,.43.68,3.58,3.58,0,0,1-.85,1.85c-.36-.45-.6-.68-.75-.68a.76.76,0,0,0-.53.2,4.36,4.36,0,0,0-1.81-2,2.12,2.12,0,0,1,.32-1.46,3,3,0,0,1,.43-2.53h.64a2.13,2.13,0,0,0,.85.88,1.71,1.71,0,0,1,1.17-.49Q502,121,502,122.5ZM498.88,160l-1.39.49v-.2l1.28-.58Zm-.53-4-.11-.29-.43.2v.29Zm3.41-.49h-.64a8.3,8.3,0,0,1-1.92.88l1.07.19A11,11,0,0,0,501.76,155.53Zm2.45,1.75-2.35,1.27-.11-.29,2.35-1.17Zm-1.49-2v-.29H502v.29Zm2.35,3a11.47,11.47,0,0,1-1.92,1.27,3.23,3.23,0,0,1-.43.29q.74-.58,2-1.66a1.3,1.3,0,0,0-.53-.1,1.22,1.22,0,0,0,.64-.39c0,.33,0,.49.11.49Z" fill="#000"/><rect x="475.31" y="134.68" width="0.32" height="0.39" fill="#000"/><rect x="497.06" y="156.12" width="0.64" height="0.2" fill="#000"/><path d="M558.07,167.71a31.9,31.9,0,0,0-3.31,1.07,2.78,2.78,0,0,1-1.07-.1,5.64,5.64,0,0,0,1.17-1q7.14-2.43,9.92-3.51c-.28,0-.43-.13-.43-.39h-.53a19,19,0,0,0-5.33,1q-2.24.68-4.59,1.36a74.49,74.49,0,0,0-8.32,2.92q-2.56,1.07-7.89,3.51-.11,0-.53.44c-.28.29-.5.44-.64.44-.36,0-.53,0-.53-.1a6.12,6.12,0,0,1,.43-.49q4.16-2.24,6.19-3.61-8.85,4.09-9.39,4.38a11.88,11.88,0,0,0-1.07,1.07c-.92.33-1.6.58-2,.78L530,175a22.19,22.19,0,0,1,2.88-1.85,16.35,16.35,0,0,0,3-2.14q-8.32,4.19-8.75,4.19a1.94,1.94,0,0,1-.75-.29,4.51,4.51,0,0,1-1.92-.58,6.55,6.55,0,0,1-1.28-1.66V172l-.32-.29a.45.45,0,0,0,0-.58,5.9,5.9,0,0,1-1.81-3.21q-.11-.49-.32-2.92a33.21,33.21,0,0,1,0-3.8l-.21-.49q0-.1.43-1.85a.66.66,0,0,1,.43.1,18.72,18.72,0,0,0-.21,2.34.26.26,0,0,0,.11.19,3.42,3.42,0,0,0,.21,1.85c.21.39.39.58.53.58a11,11,0,0,1,.75-5.26c.35-.58.57-.94.64-1.07s.23,0,.27.15a2.86,2.86,0,0,1,.05.73,1.07,1.07,0,0,0,0,.68,9.21,9.21,0,0,1,2.88-.58q1,0,1.17.29c-.21-.65-.25-1.07-.11-1.27a14.75,14.75,0,0,1,3.63-.49,1.41,1.41,0,0,0,.48-.1,1.43,1.43,0,0,1,.48-.1q.64,0,6.61.49a3.76,3.76,0,0,0-.11-1v-.29l-.43.49h-.53a1,1,0,0,1-.21-.39q-1.81-.29-1.39-.29a1.22,1.22,0,0,0-.64.19,1.13,1.13,0,0,1-.43.2H531a1.34,1.34,0,0,0-.53.15,1.34,1.34,0,0,1-.53.15c-.14,0-.36-.23-.64-.68.21-.2.36-.29.43-.29s.07.07,0,.2,0,.1.21.1a.25.25,0,0,0,.27-.15c0-.1.12-.15.27-.15H531a3.38,3.38,0,0,0,.53.1c-.21-.06,0-.2.53-.39h1.71q1.49.1,2.13.1a.74.74,0,0,0-.11-.29v-.29q-2.88-.39-3.73-.58l1.17-.1a1.22,1.22,0,0,0,1,0c.35-.13.5-.19.43-.19a.25.25,0,0,1,.27.19.25.25,0,0,0,.27.2q.21,0,1.44-.2T538,154a1.74,1.74,0,0,1,1.17.68,1.09,1.09,0,0,1,.43-.78c-.36,0-.53-.06-.53-.2a.71.71,0,0,1,.27-.15c.11,0,.16-.08.16-.15a2.64,2.64,0,0,0,1,.29,11.59,11.59,0,0,0-1.07-.58c.5-.19.75-.42.75-.68a.56.56,0,0,0-.27.1.93.93,0,0,1-.48.1,5.54,5.54,0,0,1-2.24-.58c.14-.13.21-.16.21-.1a4.69,4.69,0,0,0,2-.2q.21.39.21-1.07a.9.9,0,0,1-.53-.29l.32-.29h-1a.71.71,0,0,1-.11.29,7,7,0,0,0-1.92-.78l.64-.29a1,1,0,0,1,.43-.68c.85-.13,1.17-.2,1-.2a10.35,10.35,0,0,1,1.12.15,10.27,10.27,0,0,0,1.12.15,1.69,1.69,0,0,0,1-.39c-.21-.13-.18-.39.11-.78a6.77,6.77,0,0,1,.53-.68,19.92,19.92,0,0,0-3.62-.78,5.67,5.67,0,0,0-.53-.29c.21.13.11.2-.32.2a3.78,3.78,0,0,0-.85.2,3.69,3.69,0,0,1-.85.19l-.43-.39a4,4,0,0,1-1.17-.24c-.5-.16-.82-.28-1-.34q-2.77-.29-4.16-.39l-1.17-.49a5,5,0,0,0,1.28-.58l.43.29a4.41,4.41,0,0,1,2-.49,5.15,5.15,0,0,1,1.55.15c.25.1.34.15.27.15.14,0,.23,0,.27-.15s.12-.15.27-.15a2.24,2.24,0,0,1,.75.24,2.18,2.18,0,0,0,.75.24c.14,0,.21,0,.21-.1s.07-.1.21-.1q-.32,0,1,.49a2.29,2.29,0,0,1,1.07.68q-1.39-2-5.23-2h-1.28c-.64.07-1,.1-1.17.1a.53.53,0,0,1-.37-.15.54.54,0,0,0-.37-.15q-.21,0-2.51.49c-1.53.33-2.36.49-2.51.49s-.23,0-.27.15a.25.25,0,0,1-.27.15,5,5,0,0,1-1.17-.39q.74-3.9,1.17-5.36v-1.27a2.82,2.82,0,0,1,.43-1.17,2.82,2.82,0,0,0,.43-1.17,1,1,0,0,0-.11-.49q.21-1.07.32-.78-.21-.19.32-2.24V130.2c.21-.65.39-1.14.53-1.46a1.7,1.7,0,0,1,.43-.29,25.53,25.53,0,0,1,3-.58q5.33-1.27,8.11-1.75a1.63,1.63,0,0,1,.69-.39l1.71-.49c.89-.26,1.37-.39,1.44-.39s.2,0,.16.15.05.15.27.15a3.12,3.12,0,0,0,.64-.1,3.2,3.2,0,0,1,.64-.1.44.44,0,0,1-.43-.2,4.49,4.49,0,0,0,1.28-.39,6.53,6.53,0,0,1,1.81-.2q-.85,0,6.72-1.46a16.77,16.77,0,0,0-4.05-.1,3.38,3.38,0,0,1-.53.1,1,1,0,0,1-.48-.15,1,1,0,0,0-.48-.15.76.76,0,0,0-.48.24.85.85,0,0,1-.59.24,3.62,3.62,0,0,1-1.28-.29c0,.33,0,.49-.11.49a.47.47,0,0,1-.37-.2.47.47,0,0,0-.37-.2,12.45,12.45,0,0,0-1.76.49c-1,.33-1.58.49-1.65.49a25.57,25.57,0,0,0-3.84.29c.14,0,.21.07.21.2a.69.69,0,0,1-.64.39,3.19,3.19,0,0,1-2.24-.78l.32-.29a10.27,10.27,0,0,0,2,0l1.49-.1c.07,0,.51-.08,1.33-.24a10.54,10.54,0,0,1,1.76-.24,13.34,13.34,0,0,1,3.73-.68,1.35,1.35,0,0,1,.64-.29c.35,0,.43.1.21.29a7.44,7.44,0,0,1,2.77-.49.53.53,0,0,1,.21-.58q.32.29.21.29a4.78,4.78,0,0,1,2.19-.63,5.78,5.78,0,0,0,2.29-.63,1.09,1.09,0,0,1-.53.19.75.75,0,0,1-.53-.19q0-.19.64-.49v-.58a1.55,1.55,0,0,1-1-.19,4.24,4.24,0,0,1,1.71-.29q1.17-.1,1.17-.68a2.79,2.79,0,0,0,1.49-.39,12,12,0,0,1-3.41-.1c0-.26.11-.36.32-.29l3.2-.2a4.72,4.72,0,0,0,.75-.2,3.85,3.85,0,0,1,1.07-.19,2.48,2.48,0,0,1-1.39-.2l3.52-.29a5.28,5.28,0,0,0-3-.29,6.26,6.26,0,0,1-3-.2q3.09-.58,4.59-.78-5.87.39-6.83.39l-.64-.58a15.49,15.49,0,0,1,3.2-.39.52.52,0,0,0,.11-.39c.07-.13,0-.21-.11-.24a.23.23,0,0,1-.21-.24,1.22,1.22,0,0,1,.64-.2,11.75,11.75,0,0,0,2.35-.1l-.21-.39a11.83,11.83,0,0,0-3-.68l-4.11.15-4.11.15h-.43a.46.46,0,0,0-.32-.1,3.13,3.13,0,0,0-.75.39,11.78,11.78,0,0,0-1.71.2c-.78.13-1.21.2-1.28.2-.43,0-.64,0-.64-.1v-.2l-.43.39q-9,1.37-10.45,1.36a2.89,2.89,0,0,1-1.39-.29,2.43,2.43,0,0,1,.82-.48l-.93.08h-1.07c-.07,0-.25-.13-.53-.39a9.62,9.62,0,0,1,.11-1.75q-.85-2.63-3-2.63h-.53a.57.57,0,0,0-.32.49q0,.29,1,.78a10.77,10.77,0,0,0,1,.58,10.43,10.43,0,0,0,1,1.66.52.52,0,0,1-.53-.1q-.54-.88-1.07-.88c-.14,0-.2,0-.16.1s0,.1-.16.1a1.58,1.58,0,0,1-.53-.29v.78c.07.58.14,1.07.21,1.46h-.43q-1.07-1.85-1.49-2.73c-.07,0-.2.11-.37.34a1.43,1.43,0,0,1-.48.44,5.43,5.43,0,0,0-1.17-.49q.32.2-.43.88a2.46,2.46,0,0,0-.11.58,1.15,1.15,0,0,1-.43.2c-.07.07,0,.19.21.39a.14.14,0,0,1,.21,0,2.37,2.37,0,0,0-.11,1.17l-1.07-1V114q.74.68-.32,1.17-.21,1.46-.53,1.66c-.07,0-.11-.06-.11-.2s-.07-.19-.21-.19a1.41,1.41,0,0,0-.59.19,1.39,1.39,0,0,1-.59.2,1.7,1.7,0,0,1-.21,1q-2.88,1.07-2.45,1.07h-1.81q-.43.39-.32.68a2.2,2.2,0,0,1-1.07.39q-.43,0-.64-.78a7.83,7.83,0,0,0-1.17.2V120a2.86,2.86,0,0,0,1.17,1.07q-.43.29-.43.58a1,1,0,0,0,.11.34,1.1,1.1,0,0,1,.11.34q0,.2-.64.29a1.42,1.42,0,0,1-.21-1.07c-.28,0-.73,0-1.33-.1l-1-.1a2.46,2.46,0,0,0-1.28.39A8.56,8.56,0,0,0,504,123q.32.88,1.81.88a1.21,1.21,0,0,0,.85-.29c.21.33.43.49.64.49q.85-.68,1.17-1a5.32,5.32,0,0,1-.11,1.27.92.92,0,0,0,.64-.2c.14.33.14.55,0,.68l-.85-.2c-.07,0-.21.13-.43.39,0-.06.07.1.21.49l-1.28,2,.43-.29a1,1,0,0,0,.64.29,1.68,1.68,0,0,0,.75-.39,2.21,2.21,0,0,1,.64-.39h.21c0,.07.07.1.21.1q-.32,0,.64-.58c.07,0,.12,0,.16.15a.58.58,0,0,0,.16.24c-.28.26-.32.49-.11.68a8.78,8.78,0,0,1,2.56-.58,1.11,1.11,0,0,1,.53.19c-.36.46-.43.78-.21,1a1.64,1.64,0,0,1-1.6,1.36,1.27,1.27,0,0,1-.53-.1.9.9,0,0,0-.32-.1c-.21.45-.43.68-.64.68H509a1.54,1.54,0,0,1-1.44-1c-.32-.65-.62-1-.91-1-.5,0-.75.26-.75.78a1.87,1.87,0,0,0,1,1.46,3.16,3.16,0,0,0,1.81.68q1.92,0,3.95.2a10,10,0,0,0-1.28,1.17l.32.34a4.15,4.15,0,0,0,.32.34q.32-.19,1.07-.78c.21.2.28.29.21.29q.21,0,.43-.59l.32.2a3.78,3.78,0,0,0-.21,1,4,4,0,0,1-1.07.39.45.45,0,0,1-.32-.1h-.11a.75.75,0,0,1-.21.58c.21,0,.32-.1.32-.29a4.66,4.66,0,0,0,1.17-.1,60.46,60.46,0,0,0-1.81,7.41.72.72,0,0,1,.11.29c0,.13-.11.23-.32.29a1.14,1.14,0,0,0,.21,1A13.36,13.36,0,0,0,511,146a10.32,10.32,0,0,1-.85,3.6h-.75a4.46,4.46,0,0,0,1.39.49q-.54,2.44-.85,3.51a.59.59,0,0,1-.59-.34,3.93,3.93,0,0,1-.27-1v-.78a20.15,20.15,0,0,0,.32-2.83q.53-4,.53-4.09a3,3,0,0,1,.75-.78,2.86,2.86,0,0,0,0-2.63,21.32,21.32,0,0,1,1.71-6.82,5.24,5.24,0,0,1-1.17.49,53.18,53.18,0,0,0-1.39,5.46,1.13,1.13,0,0,1,.32.88l-.85,1.56q.32.29,0,1.17a1.15,1.15,0,0,1-.21.29,43.83,43.83,0,0,1-.21,5,22.35,22.35,0,0,0-.21,2.49l-1.17,1.17a2.5,2.5,0,0,0-.21,1.17c0,.19.16.41.48.63a1.85,1.85,0,0,0,.59.34,5.59,5.59,0,0,1,.21,2.44,4.19,4.19,0,0,0,.43-.78,1.69,1.69,0,0,0,.85-.29c.07,0,.12,0,.16.15a.58.58,0,0,0,.16.24,7.73,7.73,0,0,1-.75,1.17,2,2,0,0,1,.75.1v7l-.43.39a2.92,2.92,0,0,0-.32-.39V160.4a.83.83,0,0,0-.53-.88l-.32,1.75a1,1,0,0,1-.11-.49,3.76,3.76,0,0,0-.32,1.75q0,.19.32,2.63.43,2.83.53,3.9c.14,0,.21.07.21.19l-.32.39a2.57,2.57,0,0,1,1.07.2v1.46a10.71,10.71,0,0,1,1.81,3.31q-.32.39,0,.68a4.15,4.15,0,0,1,.75,1.07q1.06,2.63,1.81,2.63c.14,0,.21.1.21.29a3.14,3.14,0,0,1-.32.39h-.64a18.43,18.43,0,0,1-3.73-7.89,1.75,1.75,0,0,0-.43-.29,6.71,6.71,0,0,0-.32-1.46v2.14c0-.39.11.07.32,1.36a20,20,0,0,0,3.52,7.7,13.21,13.21,0,0,0,2.88,2.44,2.47,2.47,0,0,0,1.07.49c.14,0,.21,0,.21-.1s.07-.1.21-.1a12.53,12.53,0,0,1,1.71.44,12.6,12.6,0,0,0,1.71.44.34.34,0,0,0,.32-.2.36.36,0,0,1,.64,0,.34.34,0,0,0,.32.2,5,5,0,0,0,1.12-.34,4.84,4.84,0,0,1,1.12-.34,9.18,9.18,0,0,1,1.81.1,10.55,10.55,0,0,1-.85-.68c.07,0,.12-.08.16-.24a.62.62,0,0,1,.16-.34h2l.32.29-.53.49q.85-.39,1-.68a.22.22,0,0,1,.32.1q4.9-.88,5.65-1l.53-.49,1.07.2c0-.46.07-.68.21-.68a.76.76,0,0,1,.53.19c-.21-.19,0-.29.53-.29a8.46,8.46,0,0,0,3.2-1.36.82.82,0,0,1-.11.39v.1a9.81,9.81,0,0,1,3.73-2,7.17,7.17,0,0,0,3.31-2,6.38,6.38,0,0,1-1.28.2Q542.6,178,542.5,178a8.67,8.67,0,0,0-1.18,0c1.72-.88,3-1.55,3.85-2a24.28,24.28,0,0,0,2.45-1.85q6.29-2.83,8.53-3.9l-.85-.29q-4.59,1.37-6.72,1.95a15.11,15.11,0,0,1,4.75-2.29A23.61,23.61,0,0,0,558.07,167.71Zm-31-9.94-.64-.39.21-.2.64.39Zm-2.93-.44a1,1,0,0,1,.48-.15,9.31,9.31,0,0,0,1.28-.24,8.08,8.08,0,0,1,1.49-.24,5.63,5.63,0,0,0,.64.1l-1.17.2q-1,.2-1,.88h-.53l.43-.39c.07-.06,0-.16-.11-.29q-1.17.49-1,.49a1.39,1.39,0,0,1-.48-.1,1.44,1.44,0,0,0-.48-.1A1,1,0,0,0,524.1,157.34Zm20.53-33.76c-.21,0-.32.16-.32.49,0-.32-.07-.49-.21-.49Zm-7.25.39,1.17-.19v.29l-1.17.2Zm14.72-8h.53v.29h-.53Zm-10-1.27h1.07v.19h-1.07ZM513.59,168c-.21,0-.32-.16-.32-.49a1.93,1.93,0,0,0,.43-.1h.43A1.54,1.54,0,0,1,513.59,168Zm.21-44h-.64c0-.13.21-.29.64-.49l-.32-.39a2.76,2.76,0,0,1,.85.29Q514.34,123.48,513.81,124Zm2.67-6.92c.57.45.85.84.85,1.17a1.74,1.74,0,0,0-.64.2.82.82,0,0,1,.32-.58,1.35,1.35,0,0,0-.64-.29.64.64,0,0,0,.43-.2Zm.85,65.77-.53-.39.11-.2.64.39Zm7,.39h-1.6l.32-.39c.14-.07.07-.1-.21-.1a2,2,0,0,0-1,.29,1,1,0,0,0,.64.29,3.21,3.21,0,0,1-.64-.1,3.13,3.13,0,0,0-.64-.1h-.53a2,2,0,0,1-.53.1q.43,0-3.63-1.17a14.19,14.19,0,0,1-2.56-1.95l.43-.39a24.73,24.73,0,0,0,3.41,2.24,9,9,0,0,1,1.28.68.73.73,0,0,0,.11-.29,16.14,16.14,0,0,1,1.92.15q1.17.15,1.39.15a.86.86,0,0,0,.37-.19.83.83,0,0,1,.48-.2h.53l.43.39Zm2.67-1.56-.32-.1.21-.39h.32Z" fill="#000"/><polygon points="504.53 121.14 504.32 121.33 504.1 121.14 504.32 120.94 504.53 121.14" fill="#000"/><polygon points="506.13 120.36 505.6 120.56 505.6 120.36 506.02 120.17 506.13 120.36" fill="#000"/><polygon points="507.51 125.23 507.3 125.23 507.09 124.94 507.3 124.84 507.51 125.23" fill="#000"/><polygon points="515.09 117.34 514.88 117.44 514.66 117.24 514.88 117.05 515.09 117.34" fill="#000"/><rect x="522.13" y="186.03" width="0.43" height="0.29" fill="#000"/><rect x="531.09" y="142.57" width="0.43" height="0.29" fill="#000"/><polygon points="542.18 144.33 541.96 144.72 541.64 144.62 541.86 144.23 542.18 144.33" fill="#000"/><rect x="541.96" y="124.65" width="0.43" height="0.2" fill="#000"/><rect x="543.56" y="124.65" width="0.43" height="0.2" fill="#000"/><rect x="546.34" y="123.19" width="0.43" height="0.29" fill="#000"/><path d="M619.5,141q-2.88-.39-5.76-.68a1.14,1.14,0,0,1-.32-.19,3.1,3.1,0,0,0-.85.1,2.35,2.35,0,0,1-.85-.39l.11-.2h2.88q1.81.1,2.35.1a10.45,10.45,0,0,0-3.73-1.07.54.54,0,0,1,.21-.39.45.45,0,0,0-.27.15.69.69,0,0,1-.48.15q-.11,0-2.4-.44t-2.45-.44l-2.08-.1-2.08-.1a4.72,4.72,0,0,1-.85-.2,4.32,4.32,0,0,0-1-.19q-1.6,0-1.71-.2l.32-.29q3.63.39,5.44.39,1,.1,2.24.29c.85.13,1.31.2,1.39.2q-.32,0,.43-.39,1.71-.19,1.28-.2a.66.66,0,0,1,.43.1c-.21-.13-.11-.29.32-.49a2.94,2.94,0,0,0-1.81-.78,61.41,61.41,0,0,1-10.45-1.07l.21-.29,15.68,1a29,29,0,0,1-4.16-.68l-.21-.2q-7.14-.68-7.57-.68a63.39,63.39,0,0,0-8.21-.68q-5.87-.19-6.72-.58a34.68,34.68,0,0,0,.64-8.18,1.12,1.12,0,0,1,.11-.44,1.11,1.11,0,0,0,.11-.44q0-.19-.53-.49a20,20,0,0,0-.43-2.34,1.57,1.57,0,0,1-.11,1.07v-.1a.84.84,0,0,0-.75-.78,2.4,2.4,0,0,1-.11-.59,3.22,3.22,0,0,0-1.28-.68c-.07,0-.11,0-.11.1s-.07.1-.21.1l-.85-.88a3.83,3.83,0,0,1-1-.68c-.18-.2-.27-.33-.27-.39q-.53,2.53-.53,1.95a.46.46,0,0,0-.32.1h-.21a.91.91,0,0,1-.64-.2v-.58a2.22,2.22,0,0,0-.64-1.85q-1.28,2-1.81,2.92a2.68,2.68,0,0,1-1.81,1,.44.44,0,0,1-.43-.2,5,5,0,0,1-.75,2.24,1.12,1.12,0,0,1-.43.19,17.85,17.85,0,0,0-1,3.6,3.15,3.15,0,0,0-.75,1.56,16.53,16.53,0,0,1-1.28,5.85q-2.35.49-3.52.68l-5.44,1.17a1.61,1.61,0,0,0-.48.39.72.72,0,0,1-.48.29c-.14,0-.21,0-.21-.1h-.21a8.75,8.75,0,0,0-1.76.83,8.8,8.8,0,0,1-1.76.83c-.21,0-.32-.06-.32-.19s-.25.42-.75,2a4.42,4.42,0,0,1,1.28-.19v.1a4.52,4.52,0,0,0-1.92,1.56,1.69,1.69,0,0,1-1.07,2,2.51,2.51,0,0,0-.64-.59,2.16,2.16,0,0,1-.43.49c-.21.19-.32.36-.32.49a10.75,10.75,0,0,0,1.44,1.36q1.44,1.27,2.08,1.95l.53-.39a1.12,1.12,0,0,0,.21.49.59.59,0,0,0-.16.24.61.61,0,0,1-.16.24,7.78,7.78,0,0,0,1.12.58,4.84,4.84,0,0,0,1.65.2q.21,0,2.45-.39c1.49-.26,2.31-.39,2.45-.39a1.75,1.75,0,0,1,.59.15,1.82,1.82,0,0,0,.48.15.47.47,0,0,1,.43-.49c.28-.06.73-.15,1.33-.24a10.42,10.42,0,0,1,1.12-.15.66.66,0,0,1,.43.1v1q-.32,2.83-.75,5.26c0,.33,0,.81-.11,1.46s-.11,1-.11,1.07.28.19.85.78l-.32.58h-.85a1.59,1.59,0,0,1,.64,1.07q-.43,7-.53,10.52L571.4,161h.43l.32.29v.39l-.32.2a.37.37,0,0,1-.11-.29,6.43,6.43,0,0,1-.11.93,6.36,6.36,0,0,0-.11,1c0-.2.07-.29.21-.29q.85,0,.85,1.17a.81.81,0,0,1-.11.39v.2a1.14,1.14,0,0,1,.43.19v-.88a.76.76,0,0,1,.53-.78.55.55,0,0,1,.21.39A2.1,2.1,0,0,1,574,163a2.23,2.23,0,0,0,.32-.78h.11a1.07,1.07,0,0,1,.21.78.62.62,0,0,1,.32.19c-.21.13-.32.26-.32.39,0-.13.11-.2.32-.2l.32.2q.11-.59.11,4.68a.82.82,0,0,1-.32.58.86.86,0,0,1,.43.88,1.07,1.07,0,0,0,.21.29l-.32.29q1.07,1,1.07,1.17a25.12,25.12,0,0,1,.64-3.22,2.86,2.86,0,0,1-.11-1.85c.28-1.36.44-2.11.48-2.24s.09-.2.16-.2v1.66a2,2,0,0,0,.32,1.27,4.63,4.63,0,0,1,.32-1.56c.14.13.21.23.21.29a.9.9,0,0,1,.21-.49c-.21.07-.43,0-.64-.29a5.63,5.63,0,0,1,1-.39.46.46,0,0,1,.32.1v1.85q0,.39-.21.29.21,3.9.32,5.75.85-5.46,1.17-8.18a1.4,1.4,0,0,0,.64.49q.43-2.14.75-3.22a34.58,34.58,0,0,1,.43,4.77,9.78,9.78,0,0,0,.43-2.24q.32-4,.64-6.24c.14-.26.25-.39.32-.39a.32.32,0,0,0-.21.1h-.21a3.81,3.81,0,0,0,.21-1,1.62,1.62,0,0,1-.32-.68,5.09,5.09,0,0,1,.27-1,5.1,5.1,0,0,0,.27-1,70.46,70.46,0,0,1,1.39-7.11c.21-.33.39-.49.53-.49-.36,0-.36-.16,0-.49q7.57-.58,14.29-.58.21,0,2.08.29t2.08.29a1.89,1.89,0,0,0,.53-.1H607q1.81-.39,1.39-.39c.14,0,.21.07.21.2s.07.1.21.1a.64.64,0,0,0,.43-.2.64.64,0,0,1,.43-.2,3.19,3.19,0,0,1,.8.2,3.11,3.11,0,0,0,.8.2,4.84,4.84,0,0,0,.75-.1h.75a2.89,2.89,0,0,1,.91.34,2.86,2.86,0,0,0,.91.34,1.05,1.05,0,0,0,.59-.34q.37-.34.48-.34a1.63,1.63,0,0,0,.85.39h1.71v-.49a1.89,1.89,0,0,0-1.39-.68,1,1,0,0,0-.43.1,1,1,0,0,1-.43.1,3.2,3.2,0,0,1-.75-.34l-.85-.44a13.3,13.3,0,0,1-2.24-.2l.32-.29,2.45.49a2.46,2.46,0,0,0,.53-.15,2.4,2.4,0,0,1,.53-.15l1.65.1q1.44.1,2,.1-2.77-.88-4.16-1.27c.07.13-.32.2-1.17.2a.57.57,0,0,1-.43-.29.52.52,0,0,1,.28-.12,16.87,16.87,0,0,1-2.41-.37c0-.13.07-.13.21,0q1.17,0,5.76-.29.21,0,1.44.19t1.44.2a2.66,2.66,0,0,1,.75.2,2.56,2.56,0,0,0,.75.19,1,1,0,0,0,.43-.1,1,1,0,0,1,.43-.1,7.42,7.42,0,0,1,2.67.58v-.58A34.92,34.92,0,0,0,619.5,141Zm-47.88,16.42a.78.78,0,0,1,.64-.73.55.55,0,0,1,.21.39,2,2,0,0,1-.43.78,9,9,0,0,0-.53.78A7.22,7.22,0,0,1,571.61,157.43Zm1.17,2.68h-.32l.21-1.36H573Zm.21-1.46a2.56,2.56,0,0,1-.53-.68,3,3,0,0,1,.53-1.46Zm.21-2.14c-.43-.2-.64-.36-.64-.49l.64-1.17Zm41.27-13.06h1v.29h-1Z" fill="#000"/><rect x="571.19" y="164.2" width="0.32" height="0.39" fill="#000"/><polygon points="579.18 163.42 578.97 163.62 578.76 163.33 578.97 163.23 579.18 163.42" fill="#000"/><polygon points="588.36 159.53 588.25 159.33 587.82 159.53 587.82 159.72 588.36 159.53" fill="#000"/></svg>